<?xml version="1.0" standalone="no"?>
<!DOCTYPE svg PUBLIC "-//W3C//DTD SVG 1.1//EN" "http://www.w3.org/Graphics/SVG/1.1/DTD/svg11.dtd" >
<svg xmlns="http://www.w3.org/2000/svg" xmlns:xlink="http://www.w3.org/1999/xlink" version="1.1">
<metadata>
Created by FontForge 20170731 at Wed Jan  6 13:33:52 2021
 By Aleksey,,,
Copyright 1998 by (URW)++ Design &#38; Development GmbH
</metadata>
<defs>
<font id="CorporateA-Demi" horiz-adv-x="1093" >
  <font-face 
    font-family="Corporate A Demi"
    font-weight="500"
    font-stretch="normal"
    units-per-em="2048"
    panose-1="0 0 0 0 0 0 0 0 0 0"
    ascent="1638"
    descent="-410"
    x-height="967"
    cap-height="1372"
    bbox="-379 -535 1921 1808"
    underline-thickness="100"
    underline-position="-331"
    unicode-range="U+0020-00FF"
  />
<missing-glyph horiz-adv-x="512" 
 />
    <glyph glyph-name=".notdef" horiz-adv-x="512" 
 />
    <glyph glyph-name=".null" horiz-adv-x="0" 
 />
    <glyph glyph-name="nonmarkingreturn" horiz-adv-x="682" 
 />
    <glyph glyph-name="space" unicode=" " horiz-adv-x="512" 
 />
    <glyph glyph-name="exclam" unicode="!" horiz-adv-x="552" 
d="M215 440l-59 914h243l-59 -914h-125zM279 270q59 0 101 -42.5t42 -102.5t-43 -102.5t-103 -42.5t-102.5 42.5t-42.5 102.5q0 61 43 103t105 42z" />
    <glyph glyph-name="quotedbl" unicode="&#x22;" horiz-adv-x="751" 
d="M287 817h-127l-29 549h184zM594 817h-129l-27 549h185z" />
    <glyph glyph-name="numbersign" unicode="#" horiz-adv-x="1234" 
d="M1116 559l-20 -135h-228l-67 -424h-156l66 424h-275l-65 -424h-156l68 424h-230l21 135h229l43 272h-227l20 136h230l61 399h156l-62 -399h275l61 399h156l-62 -399h228l-23 -136h-227l-43 -272h227zM776 831h-274l-43 -272h274z" />
    <glyph glyph-name="dollar" unicode="$" 
d="M514 45v551q-185 74 -221 92q-101 51 -149 129t-48 191q0 163 113 266t305 115v165h66v-165q162 -11 276 -117l64 125h36v-406h-57q-29 155 -110.5 238.5t-208.5 87.5v-494q173 -64 245 -106q193 -111 193 -326q0 -177 -119.5 -290.5t-318.5 -123.5v-165h-66v168
q-168 12 -309 129l-84 -148h-37v473h57q19 -172 118.5 -275t254.5 -114zM580 571v-524q114 13 175.5 81t61.5 181q0 98 -51.5 154.5t-185.5 107.5zM514 846v467q-101 -17 -158 -81t-57 -159q0 -87 43 -132t172 -95z" />
    <glyph glyph-name="percent" unicode="%" horiz-adv-x="1320" 
d="M356 1378q123 0 203 -92t80 -233q0 -142 -82 -237t-205 -95q-128 0 -208.5 92t-80.5 238q0 139 84 233t209 94zM354 1321q-133 0 -133 -270q0 -140 32 -206.5t99 -66.5t98 66t31 209q0 268 -127 268zM213 0l797 1366h98l-797 -1366h-98zM975 645q123 0 202.5 -92
t79.5 -234t-81.5 -236.5t-204.5 -94.5q-128 0 -208.5 91.5t-80.5 237.5q0 140 83.5 234t209.5 94zM973 588q-133 0 -133 -271q0 -140 32 -206t99 -66t98 65.5t31 208.5q0 269 -127 269z" />
    <glyph glyph-name="ampersand" unicode="&#x26;" horiz-adv-x="1253" 
d="M606 725l322 -430q86 117 86 221q0 34 -23.5 47.5t-85.5 16.5v67q101 -8 154 -8q52 0 153 8v-67q-72 -4 -91 -20.5t-31 -84.5q-17 -82 -40.5 -137.5t-64.5 -114.5l57 -80q46 -63 76 -79.5t99 -18.5v-51q-102 6 -148 6q-48 0 -147 -6l-74 98q-94 -65 -169.5 -90
t-176.5 -25q-200 0 -322.5 103t-122.5 270q0 172 129 289q49 46 156 121q-91 129 -114 179t-23 118q0 121 96 203.5t236 82.5q128 0 208 -76.5t80 -197.5q0 -89 -48 -164.5t-171 -179.5zM498 866q101 76 144.5 136.5t43.5 123.5q0 66 -39 108t-102 42q-69 0 -116.5 -49
t-47.5 -121q0 -49 22.5 -95.5t94.5 -144.5zM795 158l-338 454q-102 -68 -146.5 -134t-44.5 -152q0 -115 76 -186.5t199 -71.5q66 0 118 18.5t136 71.5z" />
    <glyph glyph-name="quotesingle" unicode="'" horiz-adv-x="446" 
d="M287 817h-127l-29 549h184z" />
    <glyph glyph-name="parenleft" unicode="(" horiz-adv-x="671" 
d="M492 1399h67q-209 -358 -209 -916q0 -551 209 -915h-67q-347 338 -347 915q0 581 347 916z" />
    <glyph glyph-name="parenright" unicode=")" horiz-adv-x="671" 
d="M180 -432h-67q209 364 209 915q0 558 -209 916h67q346 -334 346 -916q0 -578 -346 -915z" />
    <glyph glyph-name="asterisk" unicode="*" 
d="M498 1085l-15 246h125l-12 -246l227 91l39 -119l-235 -64l153 -190l-100 -74l-133 205l-133 -205l-103 74l156 190l-238 64l39 117z" />
    <glyph glyph-name="plus" unicode="+" 
d="M100 614v152h367v362h158v-362h368v-152h-368v-364h-158v364h-367z" />
    <glyph glyph-name="comma" unicode="," horiz-adv-x="516" 
d="M164 -416h-103q69 74 126 193t69 217h-8l-10 -2q-53 0 -88 37t-35 92q0 63 41 103t104 40q72 0 111 -45.5t39 -130.5q0 -114 -65.5 -248.5t-180.5 -255.5z" />
    <glyph glyph-name="hyphen" unicode="-" horiz-adv-x="536" 
d="M0 481v103h537v-103h-537z" />
    <glyph glyph-name="period" unicode="." horiz-adv-x="512" 
d="M258 268q60 0 101.5 -42t41.5 -101q0 -61 -41.5 -103t-101.5 -42t-102.5 42t-42.5 101q0 61 41.5 103t103.5 42z" />
    <glyph glyph-name="slash" unicode="/" horiz-adv-x="878" 
d="M-180 -397l889 1763h149l-889 -1763h-149z" />
    <glyph glyph-name="zero" unicode="0" 
d="M549 1354q98 0 181.5 -43t135.5 -121q63 -94 98 -231.5t35 -292.5q0 -298 -116 -498q-54 -92 -139.5 -140t-194.5 -48q-217 0 -337 182t-120 510q0 149 32 281t91 223q54 85 142 131.5t192 46.5zM549 1290q-230 0 -230 -620q0 -317 56.5 -472t173.5 -155
q114 0 168.5 155.5t54.5 475.5q0 616 -223 616z" />
    <glyph glyph-name="one" unicode="1" 
d="M680 1393v-1192q0 -48 4.5 -72t24.5 -40.5t50.5 -21.5t92.5 -8v-65q-169 14 -285 14q-117 0 -286 -14v65q62 3 92.5 8t50.5 21.5t24.5 40.5t4.5 72v903h-230v63q135 9 241.5 70.5t149.5 155.5h66z" />
    <glyph glyph-name="two" unicode="2" 
d="M954 195l-30 -195h-799v166q179 192 232.5 253.5t125.5 155.5q114 146 162.5 243t48.5 177q0 91 -59.5 149t-153.5 58q-63 0 -117 -26.5t-88 -73.5q-34 -49 -55 -152h-84q14 111 34 171t60 106q52 61 135 94t183 33q164 0 270.5 -91t106.5 -231q0 -95 -48.5 -189.5
t-171 -236.5t-384.5 -411h632z" />
    <glyph glyph-name="three" unicode="3" 
d="M102 379h82q20 -131 86 -192.5t189 -61.5q131 0 206.5 73t75.5 199q0 92 -41 154.5t-118 87.5q-65 20 -185 20h-35v80h35q77 0 118.5 9t76.5 34q94 66 94 199q0 104 -58 166.5t-155 62.5q-62 0 -114.5 -25t-84.5 -71q-28 -37 -53 -131h-78q38 371 396 371
q167 0 269.5 -91t102.5 -239q0 -228 -243 -307q154 -37 227.5 -118.5t73.5 -215.5q0 -173 -128.5 -288t-322.5 -115q-192 0 -298 101.5t-118 297.5z" />
    <glyph glyph-name="four" unicode="4" 
d="M569 -20v354h-538l524 1038h242v-874h227v-164h-227v-354h-228zM578 498v762l-379 -762h379z" />
    <glyph glyph-name="five" unicode="5" 
d="M879 1149h-566l-61 -369q131 125 311 125q184 0 297 -119.5t113 -314.5q0 -214 -129.5 -352.5t-329.5 -138.5q-175 0 -277 97t-114 275h82q37 -225 254 -225q130 0 206 91t76 247q0 141 -72 226t-192 85q-80 0 -141 -35.5t-113 -113.5l-78 10l117 696h647z" />
    <glyph glyph-name="six" unicode="6" 
d="M741 1401h111q-111 -97 -235 -253t-175 -263q86 37 166 37q166 0 274.5 -130.5t108.5 -328.5q0 -207 -127 -345t-319 -138q-194 0 -319.5 137.5t-125.5 349.5q0 162 83.5 325t258.5 345q154 156 299 264zM549 838q-215 0 -215 -387q0 -207 51.5 -307.5t157.5 -100.5
q213 0 213 393q0 402 -207 402z" />
    <glyph glyph-name="seven" unicode="7" 
d="M195 0l585 1145h-684v188h891l-598 -1333h-194z" />
    <glyph glyph-name="eight" unicode="8" 
d="M741 700q119 -50 175.5 -131t56.5 -204q0 -175 -115 -280t-307 -105q-195 0 -312.5 104.5t-117.5 277.5q0 122 53.5 201.5t173.5 136.5q-104 49 -152.5 122t-48.5 179q0 160 111.5 256.5t294.5 96.5q178 0 283.5 -95t105.5 -255q0 -105 -49 -179t-152 -125zM553 662
q-97 0 -152 -80t-55 -220q0 -155 52.5 -237t150.5 -82q95 0 147 82t52 231q0 146 -50.5 226t-144.5 80zM551 1290q-86 0 -132 -72t-46 -206q0 -285 176 -285q82 0 125 69.5t43 198.5q0 295 -166 295z" />
    <glyph glyph-name="nine" unicode="9" 
d="M365 -70h-113q118 110 234 261t167 260q-86 -37 -164 -37q-163 0 -269.5 130t-106.5 328q0 206 124.5 344t311.5 138q190 0 313 -138t123 -352q0 -162 -80.5 -322.5t-251.5 -342.5q-159 -170 -288 -269zM551 1290q-207 0 -207 -385q0 -407 203 -407q209 0 209 381
q0 209 -50.5 310t-154.5 101z" />
    <glyph glyph-name="colon" unicode=":" horiz-adv-x="512" 
d="M258 268q60 0 101.5 -42t41.5 -101q0 -61 -41.5 -103t-101.5 -42t-102.5 42t-42.5 101q0 61 41.5 103t103.5 42zM258 922q60 0 101.5 -42.5t41.5 -101.5q0 -60 -42 -102.5t-101 -42.5q-60 0 -102.5 42t-42.5 101q0 62 42 104t103 42z" />
    <glyph glyph-name="semicolon" unicode=";" horiz-adv-x="516" 
d="M262 920q58 0 99.5 -42.5t41.5 -101.5q0 -60 -41.5 -101.5t-101.5 -41.5t-101.5 41.5t-41.5 101.5t42 102t103 42zM164 -416h-103q69 74 126 193t69 217h-8l-10 -2q-53 0 -88 37t-35 92q0 63 41 103t104 40q72 0 111 -45.5t39 -130.5q0 -114 -65.5 -248.5t-180.5 -255.5z
" />
    <glyph glyph-name="less" unicode="&#x3c;" horiz-adv-x="1024" 
d="M938 1264v-88l-614 -398l614 -411v-232l-852 572v14z" />
    <glyph glyph-name="equal" unicode="=" 
d="M100 760v143h893v-143h-893zM100 475v143h893v-143h-893z" />
    <glyph glyph-name="greater" unicode="&#x3e;" horiz-adv-x="1024" 
d="M86 135v88l614 398l-614 409v234l852 -572v-14z" />
    <glyph glyph-name="question" unicode="?" horiz-adv-x="839" 
d="M399 428h-90q-4 78 -4 86q0 106 29 167t131 171q59 65 81.5 109.5t22.5 95.5q0 77 -48 122.5t-130 45.5q-103 0 -163.5 -59.5t-73.5 -174.5h-72q0 92 19.5 153t62.5 111q108 117 295 117q148 0 237.5 -86t89.5 -227q0 -93 -43.5 -163.5t-148.5 -147.5
q-118 -88 -157.5 -147t-39.5 -150q0 -13 2 -23zM375 272q60 0 102.5 -42.5t42.5 -102.5q0 -61 -42.5 -104t-102.5 -43q-61 0 -104.5 42.5t-43.5 102.5q0 61 43 104t105 43z" />
    <glyph glyph-name="at" unicode="@" horiz-adv-x="1470" 
d="M1284 356h113q-49 -87 -91 -136.5t-110 -100.5q-188 -139 -412 -139q-151 0 -285 53.5t-229.5 145t-151 220.5t-55.5 275q0 148 55.5 280t150 226.5t226.5 150t279 55.5q134 0 251.5 -43.5t202 -118.5t133 -181t48.5 -226q0 -225 -143 -377q-67 -73 -147.5 -115
t-151.5 -42t-106.5 36.5t-47.5 122.5q-64 -85 -112.5 -116t-114.5 -31q-112 0 -187 80t-75 200q0 113 58.5 217t155.5 167t203 63q131 0 168 -145l35 127h168l-147 -543q-11 -46 -11 -58q0 -28 14.5 -44.5t37.5 -16.5q44 0 100 43.5t104 112.5q101 151 101 315
q0 130 -70.5 238.5t-192.5 170.5t-268 62q-173 0 -312.5 -78.5t-218.5 -217.5t-79 -312q0 -170 81.5 -306.5t225 -213t322.5 -76.5q291 0 485 276zM766 969q-111 0 -201 -178q-33 -67 -53 -143.5t-20 -135.5q0 -72 33 -118t85 -46q55 0 106.5 51t92.5 146q26 60 44.5 140
t18.5 134q0 69 -28.5 109.5t-77.5 40.5z" />
    <glyph glyph-name="A" unicode="A" horiz-adv-x="1361" 
d="M838 379h-461l-60 -164q-24 -71 -24 -92q0 -34 28 -47t113 -17v-65q-120 10 -207 10q-85 0 -207 -10v65q98 4 137.5 36t86.5 145l461 1173l438 -1218q28 -78 65.5 -104t132.5 -32v-65q-161 14 -284 14t-287 -14v65q85 4 113 16t28 42q0 19 -14 73zM408 455h405l-186 571z
" />
    <glyph glyph-name="B" unicode="B" horiz-adv-x="1216" 
d="M59 1366h578q103 0 170.5 -16t122.5 -54q63 -43 99 -113t36 -151q0 -222 -234 -299q141 -23 219 -112.5t78 -227.5q0 -108 -54 -199t-146 -135q-118 -59 -324 -59h-545v66q114 6 143 29.5t29 111.5v952q0 89 -28.5 112t-143.5 29v66zM459 750h121q132 0 189.5 63
t57.5 209t-52 209t-171 63h-145v-544zM459 678v-510q0 -57 20 -74.5t84 -17.5h76q252 0 252 307q0 156 -68 233q-59 62 -200 62h-164z" />
    <glyph glyph-name="C" unicode="C" horiz-adv-x="1280" 
d="M1085 477h70q-6 -233 -137 -370.5t-346 -137.5q-254 0 -408.5 192.5t-154.5 508.5q0 337 153.5 532t417.5 195q107 0 188 -33t156 -107l70 138h41v-445h-58q-35 138 -82 211q-44 72 -118.5 113t-163.5 41q-97 0 -169.5 -47t-113.5 -138q-78 -176 -78 -438q0 -294 93 -445
t276 -151q158 0 255 101.5t109 279.5z" />
    <glyph glyph-name="D" unicode="D" horiz-adv-x="1329" 
d="M227 207v952q0 89 -28.5 112t-143.5 29v66h551q146 0 245 -32.5t179 -106.5q100 -94 156.5 -237t56.5 -304q0 -164 -60 -311t-163 -238q-84 -71 -193 -104t-262 -33h-510v66q114 6 143 29.5t29 111.5zM461 1294v-1126q0 -63 21.5 -80.5t95.5 -17.5q113 0 187.5 27
t119.5 87q123 153 123 514q0 315 -113 469q-91 127 -295 127h-139z" />
    <glyph glyph-name="E" unicode="E" horiz-adv-x="1163" 
d="M1075 360l-59 -360h-957v66q114 6 143 29.5t29 111.5v952q0 89 -28.5 112t-143.5 29v66h945l49 -340h-58q-40 160 -93 214t-171 54h-266v-549h254q68 0 91 32t30 138h65v-411h-65q-4 102 -28.5 136t-92.5 34h-254v-490q0 -69 24 -90.5t101 -21.5h121q90 0 141 26.5
t94 94.5q47 77 70 167h59z" />
    <glyph glyph-name="F" unicode="F" horiz-adv-x="1110" 
d="M467 674v-473q0 -48 4.5 -72t24.5 -40.5t50.5 -21.5t92.5 -8v-65q-175 14 -289 14t-289 -14v65q62 3 92.5 8t50.5 21.5t24.5 40.5t4.5 72v958q0 89 -28.5 112t-143.5 29v66h945l49 -340h-58q-40 160 -93 214t-171 54h-266v-549h254q68 0 91 32t30 138h65v-411h-65
q-4 102 -28.5 136t-92.5 34h-254z" />
    <glyph glyph-name="G" unicode="G" horiz-adv-x="1351" 
d="M1153 1397v-447h-59q-34 128 -74 197q-47 83 -128.5 128.5t-180.5 45.5q-379 0 -379 -629q0 -266 65 -440q38 -103 117.5 -157t192.5 -54q57 0 107 13t134 48v353q0 64 -27.5 84t-123.5 26v66q142 -13 254 -13q114 0 256 13v-66q-92 -8 -115 -26.5t-23 -87.5v-312
q-235 -162 -487 -162q-275 0 -434.5 190t-159.5 519q0 324 160 513.5t432 189.5q106 0 188.5 -31t165.5 -101l78 140h41z" />
    <glyph glyph-name="H" unicode="H" horiz-adv-x="1433" 
d="M459 748h518v417q0 88 -30 113t-142 29v65q183 -14 291 -14t280 14v-65q-112 -4 -142 -29t-30 -113v-964q0 -89 29 -112.5t143 -29.5v-65q-175 14 -280 14t-291 -14v65q114 6 143 29.5t29 112.5v475h-518v-475q0 -89 29 -112.5t143 -29.5v-65q-186 14 -291 14
q-106 0 -281 -14v65q62 3 92.5 8t50.5 21.5t24.5 40.5t4.5 72v964q0 88 -30 113t-142 29v65q172 -14 281 -14q108 0 291 14v-65q-112 -4 -142 -29t-30 -113v-417z" />
    <glyph glyph-name="I" unicode="I" horiz-adv-x="692" 
d="M229 201v964q0 88 -30 113t-142 29v65q183 -14 289 -14t289 14v-65q-113 -5 -142.5 -29t-29.5 -113v-964q0 -48 4.5 -72t24.5 -40.5t50.5 -21.5t92.5 -8v-65q-186 14 -289 14t-289 -14v65q62 3 92.5 8t50.5 21.5t24.5 40.5t4.5 72z" />
    <glyph glyph-name="J" unicode="J" horiz-adv-x="690" 
d="M-18 -141v78q48 -7 77 -7q83 0 129 52q25 26 35 71.5t10 132.5v979q0 88 -30 113t-142 29v65q183 -14 289 -14t289 14v-65q-112 -4 -142 -29t-30 -113v-893q0 -155 -36 -238t-124 -130q-94 -51 -244 -51q-44 0 -81 6z" />
    <glyph glyph-name="K" unicode="K" horiz-adv-x="1378" 
d="M457 696l456 504q33 36 33 60q0 25 -24.5 33.5t-104.5 13.5v65q128 -8 221 -8q91 0 219 8v-65q-86 -4 -138 -28.5t-111 -86.5l-301 -326l417 -659q56 -87 101 -116t131 -32v-65q-164 16 -293 16q-128 0 -295 -16v65q85 6 110 16.5t25 39.5q0 13 -4.5 23t-26.5 46
l-313 529l-104 -111v-401q0 -88 26.5 -111t132.5 -31v-65q-140 14 -264 14q-122 0 -291 -14v65q79 3 113.5 14.5t46.5 38.5t12 89v966q0 86 -30 111t-142 29v65q181 -14 291 -14t279 14v-65q-112 -4 -142 -29t-30 -111v-471z" />
    <glyph glyph-name="L" unicode="L" 
d="M1075 360l-59 -360h-957v66q114 6 143 29.5t29 111.5v958q0 88 -30 113t-142 29v65q183 -14 289 -14t289 14v-65q-113 -5 -142.5 -29t-29.5 -113v-979q0 -69 24 -90.5t101 -21.5h123q89 0 139.5 26t93.5 95q45 72 72 165h57z" />
    <glyph glyph-name="M" unicode="M" horiz-adv-x="1759" 
d="M332 1223l-29 -1024v-19q0 -72 31.5 -94.5t140.5 -28.5v-63q-123 8 -203 8q-81 0 -217 -8v63q110 6 139.5 30t32.5 112l29 966q2 85 -29 111t-143 29v67q117 -8 207 -8q111 0 223 10l373 -954l379 954q112 -10 219 -10q84 0 196 8v-65q-109 -6 -143 -31.5t-29 -97.5v-13
l21 -966q0 -86 30 -111t140 -31v-63q-178 14 -287 14q-108 0 -289 -14v65q109 4 140.5 28.5t31.5 102.5v11l-16 1013l-360 -911l-21 -57q-21 -56 -27 -76q-19 -51 -45 -131h-39q-71 204 -100 285z" />
    <glyph glyph-name="N" unicode="N" horiz-adv-x="1400" 
d="M1176 -37h-39q-70 111 -109 166q-102 148 -123 176l-602 848v-952q0 -89 29 -113.5t143 -28.5v-65q-133 8 -211 8q-79 0 -207 -8v65q114 4 143 28.5t29 113.5v1034q-38 37 -77 53t-97 19v65q120 -6 191 -6q68 0 176 6l680 -948v741q0 88 -30 113t-142 29v65
q133 -8 211 -8q79 0 207 8v-65q-113 -5 -142.5 -29t-29.5 -113v-1202z" />
    <glyph glyph-name="O" unicode="O" horiz-adv-x="1339" 
d="M668 1397q137 0 253 -56t191 -159q139 -186 139 -506q0 -321 -158.5 -514t-422.5 -193q-267 0 -424.5 193t-157.5 520q0 325 158 520t422 195zM676 1335q-164 0 -254 -167t-90 -474q0 -189 32 -334.5t91 -220.5q83 -108 213 -108q169 0 254.5 165.5t85.5 489.5
q0 649 -332 649z" />
    <glyph glyph-name="P" unicode="P" horiz-adv-x="1171" 
d="M465 594v-393q0 -48 4.5 -72t24.5 -40.5t50.5 -21.5t92.5 -8v-65q-186 14 -289 14t-289 -14v65q62 3 92.5 8t50.5 21.5t24.5 40.5t4.5 72v958q0 89 -28.5 112t-143.5 29v66h578q113 0 185 -16.5t130 -53.5q75 -50 119.5 -134.5t44.5 -180.5q0 -94 -42 -177t-116 -134
q-110 -76 -294 -76h-199zM465 666h117q147 0 217 67q84 84 84 246q0 159 -74 242q-64 73 -217 73h-127v-628z" />
    <glyph glyph-name="Q" unicode="Q" horiz-adv-x="1325" 
d="M1397 51v-74h-111q-88 0 -141.5 22t-138.5 93q-76 -64 -158.5 -93.5t-185.5 -29.5q-263 0 -418.5 193t-155.5 520t156.5 521t417.5 194q263 0 418 -193.5t155 -521.5q0 -228 -90 -418q83 -131 130 -170.5t122 -42.5zM668 1335q-164 0 -253 -166.5t-89 -474.5
q0 -189 32 -334.5t91 -220.5q83 -108 210 -108q167 0 252.5 164.5t85.5 488.5q0 651 -329 651z" />
    <glyph glyph-name="R" unicode="R" horiz-adv-x="1277" 
d="M459 629v-428q0 -89 29 -112.5t143 -29.5v-65q-175 14 -281 14q-105 0 -291 -14v65q62 3 92.5 8t50.5 21.5t24.5 40.5t4.5 72v958q0 89 -28.5 112t-143.5 29v66h582q110 0 181 -15.5t126 -52.5q73 -47 116.5 -128.5t43.5 -172.5q0 -90 -43.5 -167t-116.5 -117
q-70 -40 -170 -62q70 -22 108 -59.5t79 -126.5l125 -275q37 -82 67 -106t100 -25v-65q-111 6 -157 6q-45 0 -156 -6q-24 41 -61 125l-148 344q-43 97 -87 131.5t-128 34.5h-61zM465 700h131q135 0 201 66q80 80 80 231q0 145 -72 226q-32 38 -78.5 54.5t-118.5 16.5h-143
v-594z" />
    <glyph glyph-name="S" unicode="S" horiz-adv-x="1105" 
d="M117 434h61q21 -135 76 -223q44 -72 121 -114t164 -42q115 0 192.5 71t77.5 175q0 57 -26.5 108.5t-73.5 86.5q-32 24 -63.5 43t-129.5 71q-132 71 -192 110t-95 75q-90 93 -90 233q0 160 116 259t302 99q91 0 157 -25.5t132 -86.5l65 125h41v-406h-61q-61 322 -305 322
q-105 0 -174.5 -65.5t-69.5 -164.5q0 -72 41 -117t168 -112q184 -98 276 -156q98 -63 141.5 -137.5t43.5 -179.5q0 -178 -118 -290.5t-306 -112.5q-102 0 -184 29.5t-166 96.5l-80 -145h-41v473z" />
    <glyph glyph-name="T" unicode="T" horiz-adv-x="1153" 
d="M690 1294v-1093q0 -89 29 -113.5t143 -28.5v-65q-175 14 -289 14q-113 0 -288 -14v65q114 4 143 28.5t29 113.5v1093h-80q-118 0 -177 -59.5t-102 -220.5h-61l61 352h955l61 -352h-61q-40 160 -99 220t-176 60h-88z" />
    <glyph glyph-name="U" unicode="U" horiz-adv-x="1394" 
d="M1178 1165v-698q0 -114 -18 -183.5t-62 -129.5q-62 -86 -164.5 -131.5t-235.5 -45.5q-247 0 -379 150q-54 60 -77 134t-23 188v716q0 88 -30 113t-142 29v65q183 -14 289 -14q108 0 289 14v-65q-113 -5 -142.5 -29t-29.5 -113v-753q0 -85 13.5 -138.5t45.5 -91.5
q81 -96 248 -96q100 0 179.5 37.5t117.5 103.5q47 78 47 248v690q0 89 -29.5 113t-142.5 29v65q133 -8 211 -8q79 0 207 8v-65q-112 -4 -142 -29t-30 -113z" />
    <glyph glyph-name="V" unicode="V" horiz-adv-x="1341" 
d="M692 -29h-55q-15 52 -78 217l-18 50l-334 911q-35 94 -68.5 122.5t-118.5 35.5v65q155 -14 279 -14q121 0 276 14v-65q-79 -4 -110 -18.5t-31 -45.5q0 -18 25 -86l289 -819l299 813q24 66 24 94q0 31 -29 44t-106 18v65q107 -8 188 -8q85 0 197 8v-65
q-76 -7 -117.5 -36.5t-66.5 -94.5l-355 -947q-13 -40 -20 -55q-3 -9 -13 -33.5t-14 -38.5q-17 -59 -26 -82z" />
    <glyph glyph-name="W" unicode="W" horiz-adv-x="1851" 
d="M592 -29h-45q-50 202 -55 222l-277 962q-26 86 -61 116t-117 36v65q153 -14 270 -14q115 0 268 14v-65q-81 -7 -109 -21.5t-28 -48.5q0 -17 17 -76l204 -725l330 973h45l318 -979l211 721q18 64 18 88q0 35 -27 49t-102 19v65q104 -8 186 -8q83 0 187 8v-65
q-81 -4 -117 -32.5t-59 -105.5l-289 -958q-31 -110 -33 -121l-29 -119h-47q-25 111 -57 207l-266 838l-269 -807q-7 -20 -36 -115q-2 -8 -10.5 -41t-20.5 -82z" />
    <glyph glyph-name="X" unicode="X" horiz-adv-x="1325" 
d="M29 -6v65q81 3 138.5 37.5t113.5 112.5l292 436l-282 522q-40 78 -81 105.5t-130 34.5v65q158 -14 287 -14q128 0 286 14v-65q-83 -6 -109 -17.5t-26 -40.5q0 -21 23 -65l174 -328l196 291q35 55 43.5 71.5t8.5 34.5q0 28 -25.5 38.5t-99.5 15.5v65q115 -8 204 -8
q92 0 207 8v-65q-86 -4 -131 -29.5t-90 -91.5l-272 -404l295 -551q57 -107 99 -137.5t142 -34.5v-65q-172 14 -295 14q-120 0 -292 -14v65q84 6 109.5 17t25.5 41q0 31 -35 94l-193 360l-243 -368q-41 -60 -41 -90q0 -28 23.5 -38t99.5 -16v-65q-123 8 -211 8q-91 0 -211 -8
z" />
    <glyph glyph-name="Y" unicode="Y" horiz-adv-x="1253" 
d="M514 592l-283 563q-41 85 -81 115.5t-119 36.5v65q161 -14 280 -14q121 0 279 14v-65q-78 -4 -107.5 -17.5t-29.5 -42.5q0 -25 26 -73l240 -478l233 469q29 53 29 86q0 28 -27.5 40t-103.5 16v65q117 -8 192 -8q76 0 193 8v-65q-81 -7 -117.5 -31t-70.5 -90l-299 -594
v-391q0 -89 29 -113.5t143 -28.5v-65q-189 14 -291 14q-101 0 -287 -14v65q114 4 143 28.5t29 113.5v391z" />
    <glyph glyph-name="Z" unicode="Z" horiz-adv-x="1148" 
d="M55 0l713 1294h-254q-131 0 -197.5 -56t-117.5 -208h-64l60 336h870l-713 -1294h342q98 0 148.5 22.5t95.5 87.5q49 68 94 195h62l-66 -377h-973z" />
    <glyph glyph-name="bracketleft" unicode="[" horiz-adv-x="671" 
d="M616 1305h-219v-1641h219v-61h-395v1763h395v-61z" />
    <glyph glyph-name="backslash" unicode="\" horiz-adv-x="878" 
d="M1059 -397h-150l-889 1763h150z" />
    <glyph glyph-name="bracketright" unicode="]" horiz-adv-x="671" 
d="M57 -336h219v1641h-219v61h396v-1763h-396v61z" />
    <glyph glyph-name="asciicircum" unicode="^" horiz-adv-x="1024" 
d="M1077 582h-88l-397 614l-412 -614h-233l571 852h14z" />
    <glyph glyph-name="underscore" unicode="_" horiz-adv-x="1024" 
d="M41 -182h942v-101h-942v101z" />
    <glyph glyph-name="grave" unicode="`" horiz-adv-x="1024" 
d="M637 1124h-96l-385 293h329z" />
    <glyph glyph-name="a" unicode="a" horiz-adv-x="1003" 
d="M958 59v-57q-85 -18 -135 -18q-88 0 -132 41.5t-54 136.5q-51 -97 -117 -139.5t-164 -42.5q-129 0 -209.5 73.5t-80.5 190.5q0 141 138 232.5t404 125.5v131q0 103 -36.5 148t-120.5 45q-64 0 -107 -29t-43 -72q0 -12 4 -43q2 -10 2 -30q0 -49 -25.5 -75t-72.5 -26
q-84 0 -84 86q0 103 104 176.5t250 73.5q100 0 180 -35t121 -98q27 -41 38 -101.5t11 -168.5v-377q0 -92 15.5 -125t58.5 -33q21 0 55 10zM608 356v191q-173 -34 -246 -97t-73 -180q0 -88 40.5 -138t110.5 -50q56 0 96.5 31t57.5 88q14 49 14 155z" />
    <glyph glyph-name="b" unicode="b" horiz-adv-x="1089" 
d="M168 -23v1174q0 92 -22.5 113.5t-122.5 21.5v47q189 14 364 66v-531q60 69 109 94t125 25q175 0 287 -141.5t112 -362.5q0 -220 -117.5 -361.5t-300.5 -141.5q-97 0 -160.5 42.5t-103.5 133.5l-119 -179h-51zM594 930q-209 0 -209 -445q0 -233 48.5 -340.5t154.5 -107.5
q205 0 205 461q0 221 -49 326.5t-150 105.5z" />
    <glyph glyph-name="c" unicode="c" horiz-adv-x="929" 
d="M838 1010v-365h-56q-15 100 -45 158q-29 60 -80.5 94.5t-111.5 34.5q-113 0 -172.5 -116t-59.5 -337q0 -428 228 -428q92 0 152 68t77 194h84q-23 -166 -112 -252t-238 -86q-189 0 -305.5 139t-116.5 363q0 229 119.5 372.5t310.5 143.5q72 0 124 -20.5t103 -69.5l60 107
h39z" />
    <glyph glyph-name="d" unicode="d" 
d="M1075 82v-47q-112 -12 -166.5 -23t-148.5 -41q-19 66 -21 74q-5 21 -10 70q-46 -80 -104.5 -116t-141.5 -36q-178 0 -293.5 143t-115.5 363q0 218 112 360t283 142q75 0 123 -25t108 -96v301q0 92 -22.5 113.5t-122.5 21.5v47q196 14 367 66v-1182q0 -90 25.5 -112.5
t127.5 -22.5zM498 913q-101 0 -149 -106t-48 -332q0 -455 203 -455q198 0 198 443q0 229 -50 339.5t-154 110.5z" />
    <glyph glyph-name="e" unicode="e" horiz-adv-x="966" 
d="M813 309h80q-25 -160 -124 -247t-257 -87q-203 0 -321.5 136.5t-118.5 371.5q0 230 116 370t308 140q127 0 221 -65.5t137 -182.5q33 -95 39 -251h-594q1 -239 60 -341t196 -102q104 0 171 67.5t87 190.5zM301 567h369q-8 197 -49.5 284t-128.5 87q-176 0 -191 -371z" />
    <glyph glyph-name="f" unicode="f" horiz-adv-x="645" 
d="M416 967h233v-78h-233v-725q0 -75 24.5 -95t122.5 -24v-51q-145 12 -258 12t-258 -12v51q98 5 123 24.5t25 94.5v725h-146v72q57 1 84 4.5t46.5 18.5t25 38.5t8.5 71.5q7 93 20.5 136t45.5 81q82 92 227 92q103 0 168 -48t65 -124q0 -43 -22.5 -65.5t-63.5 -22.5
q-40 0 -63 17t-23 48l2 31q6 29 6 47q0 26 -16 44t-41 18q-52 0 -77 -51t-25 -158v-172z" />
    <glyph glyph-name="g" unicode="g" horiz-adv-x="1021" 
d="M702 932h277v-96l-184 4q53 -75 53 -176q0 -89 -42 -160t-118 -111q-36 -21 -73 -30t-154 -29q-113 -19 -151 -36.5t-38 -51.5q0 -42 45 -51q31 -7 152 -15q203 -14 299 -41q85 -26 134.5 -89.5t49.5 -145.5q0 -143 -130 -232.5t-339 -89.5q-197 0 -312.5 72t-115.5 196
q0 73 40 122t126 81q-57 32 -79.5 64t-22.5 78q0 123 207 178q-103 38 -158 114t-55 179q0 149 99 235t271 86q70 0 120 -12.5t99 -42.5zM483 932q-82 0 -125 -68t-43 -198q0 -263 168 -263q79 0 120.5 69.5t41.5 201.5q0 258 -162 258zM414 -4q-267 0 -267 -148
q0 -83 93.5 -137.5t236.5 -54.5q142 0 223.5 47t81.5 129q0 164 -368 164z" />
    <glyph glyph-name="h" unicode="h" horiz-adv-x="1167" 
d="M410 1399v-537q99 125 264 125q151 0 229 -87.5t78 -256.5v-479q0 -75 24.5 -95t122.5 -24v-51q-127 12 -243 12q-120 0 -238 -12v49q69 3 91 25t22 88v510q0 105 -29 153q-45 66 -135 66q-100 0 -156 -78q-30 -46 -30 -148v-503q0 -66 21.5 -88t88.5 -25v-49
q-118 12 -237 12q-115 0 -242 -12v51q98 4 122.5 24t24.5 95v987q0 50 -3 73.5t-20.5 39t-42 18.5t-79.5 4v47q75 4 181 23.5t186 42.5z" />
    <glyph glyph-name="i" unicode="i" horiz-adv-x="620" 
d="M424 1004v-840q0 -75 24.5 -95t122.5 -24v-51q-148 12 -258 12t-258 -12v51q98 5 123 24.5t25 94.5v592q0 34 -1.5 53t-7.5 36t-14 25t-26.5 13.5t-39.5 7t-57 2.5v47q168 11 367 64zM303 1397q55 0 93 -40.5t38 -99.5q0 -61 -37 -101t-94 -40q-54 0 -91.5 41t-37.5 100
t37 99.5t92 40.5z" />
    <glyph glyph-name="j" unicode="j" horiz-adv-x="600" 
d="M418 1004v-971q0 -145 -34 -228t-114 -139q-118 -78 -266 -78q-21 0 -35 2v70q68 0 125 29q57 28 80 83t23 162v822q0 34 -1.5 53t-7.5 36t-14 25t-26.5 13.5t-39.5 7t-57 2.5v47q180 12 367 64zM297 1397q55 0 93 -40.5t38 -99.5q0 -61 -37 -101t-94 -40q-55 0 -93 41
t-38 100t38 99.5t93 40.5z" />
    <glyph glyph-name="k" unicode="k" horiz-adv-x="1150" 
d="M406 479l282 314q45 48 45 77q0 25 -26.5 36t-94.5 16v51q110 -10 213 -10q105 0 238 10v-51q-80 -8 -122 -28.5t-99 -80.5l-172 -188l272 -449q47 -78 82 -102t106 -29v-51q-120 6 -165 6q-49 0 -154 -6l-279 504l-131 -140v-194q0 -75 25 -94.5t123 -24.5v-51
q-140 12 -256 12q-114 0 -252 -12v51q98 4 122.5 24t24.5 95v987q0 50 -3 73.5t-20.5 39t-42 18.5t-79.5 4v47q186 16 363 66v-920z" />
    <glyph glyph-name="l" unicode="l" horiz-adv-x="595" 
d="M410 1399v-1235q0 -75 24.5 -95t122.5 -24v-51q-148 12 -258 12t-258 -12v51q98 4 122.5 24t24.5 95v987q0 50 -3 73.5t-20.5 39t-42 18.5t-79.5 4v47q174 10 367 66z" />
    <glyph glyph-name="m" unicode="m" horiz-adv-x="1695" 
d="M53 889v47q205 23 312 59q26 -77 30 -168q60 85 124 122.5t153 37.5q183 0 258 -160q57 88 120.5 124t161.5 36q293 0 293 -311v-512q0 -75 25.5 -94.5t126.5 -24.5v-51q-125 12 -244 12q-126 0 -244 -12v49q70 3 92.5 25t22.5 88v524q0 109 -34 155t-115 46
q-170 0 -170 -207v-518q0 -66 22 -88t92 -25v-49q-123 10 -225 10t-225 -10v49q70 3 92 25t22 88v526q0 102 -28 143q-40 56 -117 56q-47 0 -87 -21.5t-62 -58.5q-25 -43 -25 -139v-506q0 -66 22.5 -88t94.5 -25v-49q-118 12 -244 12q-119 0 -244 -12v51q100 5 125 24.5
t25 94.5v586v58.5t-6.5 38t-12.5 25t-27.5 11.5t-40.5 6h-63z" />
    <glyph glyph-name="n" unicode="n" horiz-adv-x="1181" 
d="M53 889v47q200 24 309 59q25 -70 31 -174q57 86 127.5 126t165.5 40q151 0 229 -87.5t78 -256.5v-479q0 -75 25 -94.5t123 -24.5v-51q-127 12 -244 12q-120 0 -238 -12v49q69 3 91 25t22 88v510q0 105 -29 153q-45 66 -135 66q-99 0 -155 -78q-31 -47 -31 -148v-503
q0 -66 21.5 -88t88.5 -25v-49q-118 12 -237 12q-115 0 -242 -12v51q98 5 123 24.5t25 94.5v586q0 38 -0.5 57t-6.5 38t-13 25t-26.5 12t-40 6.5t-61.5 0.5z" />
    <glyph glyph-name="o" unicode="o" horiz-adv-x="1001" 
d="M508 993q189 0 305.5 -141.5t116.5 -370.5q0 -215 -123.5 -360.5t-306.5 -145.5q-186 0 -307 142.5t-121 363.5t123.5 366.5t312.5 145.5zM504 938q-100 0 -151.5 -116t-51.5 -341q0 -230 49 -340t152 -110q101 0 150.5 109t49.5 335q0 240 -47.5 351.5t-150.5 111.5z
" />
    <glyph glyph-name="p" unicode="p" horiz-adv-x="1105" 
d="M31 893v47q96 8 155 17t156 32q20 -58 31 -153q54 82 112.5 116.5t141.5 34.5q174 0 290.5 -145t116.5 -361q0 -220 -112 -360.5t-287 -140.5q-77 0 -126.5 24.5t-107.5 93.5v-336q0 -75 24 -94.5t124 -23.5v-52q-157 13 -258 13t-258 -13v52q100 4 123.5 23.5t23.5 94.5
v994q0 87 -22 111t-99 26h-28zM602 930q-103 0 -153 -108.5t-50 -332.5q0 -232 50.5 -342t156.5 -110q101 0 150 105.5t49 326.5q0 461 -203 461z" />
    <glyph glyph-name="q" unicode="q" horiz-adv-x="1099" 
d="M1069 940v-47h-27q-77 -2 -98.5 -26.5t-21.5 -110.5v-994q0 -75 23.5 -94.5t123.5 -23.5v-52q-147 13 -250 13q-105 0 -262 -13v52q100 4 124 23.5t24 94.5v336q-58 -69 -107.5 -93.5t-126.5 -24.5q-175 0 -287 140.5t-112 360.5t117 363t296 143q84 0 142.5 -35.5
t105.5 -115.5q12 89 33 153q97 -23 145 -30.5t158 -18.5zM508 930q-105 0 -156 -113.5t-51 -347.5q0 -221 49 -326.5t150 -105.5q207 0 207 444q0 231 -48 340t-151 109z" />
    <glyph glyph-name="r" unicode="r" horiz-adv-x="839" 
d="M53 899v47q192 15 305 49q22 -92 27 -182q90 182 246 182q83 0 136.5 -52t53.5 -132q0 -49 -25.5 -76.5t-70.5 -27.5q-42 0 -68 19.5t-26 51.5q0 5 4 29q1 9 2 18.5t1.5 15.5t0.5 11q0 22 -15 35.5t-40 13.5q-43 0 -80.5 -30.5t-57.5 -82.5q-24 -58 -24 -167v-457
q0 -75 24.5 -95t122.5 -24v-51q-145 12 -258 12t-258 -12v51q98 5 123 24.5t25 94.5v594q0 39 -0.5 58.5t-6.5 38.5t-12.5 25.5t-27 12t-40 6t-61.5 0.5z" />
    <glyph glyph-name="s" unicode="s" horiz-adv-x="903" 
d="M115 -31v359h53q47 -279 254 -279q80 0 135 49t55 119q0 43 -24.5 74.5t-87.5 68.5q-17 11 -51 27q-52 25 -138 72q-109 59 -150.5 114t-41.5 142q0 120 91 196t234 76q66 0 118 -17t106 -57l45 99h37v-332h-56q-15 124 -66 182t-145 58q-76 0 -130 -44.5t-54 -107.5
q0 -65 68 -109q70 -38 147 -75l1 -1h1l1 -1h1l1 -1h1l1 -1h1l1 -1h1l2 -1h1l1 -1h1l1 -1h1l1 -1h1l1 -1h1l1 -1q101 -49 138 -74q4 -3 10 -7q63 -43 90 -91.5t27 -119.5q0 -132 -95.5 -216.5t-244.5 -84.5q-75 0 -134 21.5t-122 72.5l-53 -105h-37z" />
    <glyph glyph-name="t" unicode="t" horiz-adv-x="667" 
d="M645 129v-74q-70 -43 -116.5 -58t-106.5 -15q-156 0 -219 108q-35 63 -35 189v24l12 586h-125v72q106 0 179 79t104 226h68l-5 -299h220v-78h-220l-2 -602q-2 -120 22 -166.5t87 -46.5q32 0 59 10.5t78 44.5z" />
    <glyph glyph-name="u" unicode="u" horiz-adv-x="1165" 
d="M395 1004v-695q0 -67 7 -103t26 -61q43 -61 131 -61q184 0 184 240v434q0 92 -22.5 113.5t-122.5 21.5v47q183 12 367 64v-820q0 -63 21 -79t106 -19l24 -2v-49q-190 -18 -321 -64q-16 89 -21 187q-51 -92 -119.5 -133t-169.5 -41q-176 0 -260 122q-51 73 -51 216v436
q0 92 -22.5 113.5t-122.5 21.5v47q186 13 366 64z" />
    <glyph glyph-name="v" unicode="v" horiz-adv-x="1030" 
d="M539 -31h-52q-18 54 -81 213l-256 647q-22 54 -49.5 72t-94.5 21v51q164 -12 246 -12q99 0 242 12v-51q-69 -5 -89 -12.5t-20 -30.5q0 -10 14 -58l187 -538l207 536q18 47 18 62q0 22 -19.5 29t-84.5 12v51q133 -8 161 -8q27 0 158 8v-51q-68 -4 -97.5 -23.5t-54.5 -75.5
l-243 -620l-21 -49q-44 -102 -71 -185z" />
    <glyph glyph-name="w" unicode="w" horiz-adv-x="1505" 
d="M770 684l-217 -561q-28 -78 -49 -152h-51q-8 26 -24 76t-23 74l-240 682q-26 72 -54 94t-98 25v51q139 -10 238 -10q96 0 235 10v-51q-63 -5 -86.5 -15t-23.5 -35q0 -10 18 -65l166 -494l252 684h57l234 -686l168 500q14 43 14 63q0 25 -22 35t-86 13v51q109 -8 161 -8
q55 0 154 8v-51q-66 -6 -97.5 -31.5t-56.5 -91.5l-239 -680q-19 -52 -45 -148h-51l-11 37q-14 47 -18 62q-1 2 -17 45z" />
    <glyph glyph-name="x" unicode="x" horiz-adv-x="1081" 
d="M442 457l-219 370q-31 51 -68 72.5t-98 22.5v51q144 -10 248 -10q106 0 236 10v-51q-54 -5 -73 -12.5t-19 -26.5q0 -25 22 -62l111 -188l149 192q29 38 29 58t-20.5 29t-75.5 10v51q104 -8 163 -8q60 0 164 8v-51q-63 -8 -99.5 -27.5t-70.5 -65.5l-200 -258l239 -403
q41 -70 80 -95t111 -28v-51q-146 10 -256 10q-112 0 -248 -10v51q57 2 78.5 11t21.5 32q0 19 -22 62l-146 243l-180 -235q-37 -49 -37 -72q0 -22 17.5 -29t76.5 -12v-51q-107 8 -161 8q-55 0 -162 -8v51q65 6 105.5 33.5t97.5 103.5z" />
    <glyph glyph-name="y" unicode="y" horiz-adv-x="1067" 
d="M496 29l-303 772q-29 69 -60.5 93t-101.5 28v51q130 -10 239 -10q110 0 240 10v-51q-64 -5 -85.5 -13.5t-21.5 -29.5q0 -17 17 -60l188 -524l207 512q21 53 21 70q0 25 -24 34t-89 11v51q91 -8 158 -8q69 0 170 8v-51q-63 -6 -98.5 -35t-63.5 -96l-395 -959
q-53 -125 -128.5 -181.5t-189.5 -56.5q-15 0 -45 3v110q23 -2 43 -2q91 0 151.5 40t98.5 126z" />
    <glyph glyph-name="z" unicode="z" horiz-adv-x="935" 
d="M59 0l521 905h-166q-73 0 -113 -17.5t-72 -64t-71 -147.5h-56l52 291h712l-522 -906h184q82 0 123.5 22t79.5 85q37 61 68 154h55l-57 -322h-738z" />
    <glyph glyph-name="braceleft" unicode="{" horiz-adv-x="671" 
d="M584 -432h-56q-152 0 -211 55t-59 195v506q0 77 -25 112t-104 72q79 37 104 72t25 112v459q0 140 59 194t211 54h56q-80 -19 -115 -66.5t-35 -136.5v-463q0 -95 -26.5 -139.5t-108.5 -85.5q83 -42 109 -86.5t26 -138.5v-510q0 -89 35 -137t115 -68z" />
    <glyph glyph-name="bar" unicode="|" horiz-adv-x="1024" 
d="M449 1366h129v-1708h-129v1708z" />
    <glyph glyph-name="braceright" unicode="}" horiz-adv-x="671" 
d="M90 1399h53q152 0 211.5 -54.5t59.5 -193.5v-459q0 -76 25.5 -112.5t103.5 -71.5q-79 -37 -104 -72.5t-25 -111.5v-506q0 -140 -59.5 -195t-211.5 -55h-53q80 22 114 68.5t34 136.5v510q0 94 26 138.5t109 86.5q-82 41 -108.5 85.5t-26.5 139.5v463q0 89 -34 135t-114 68
z" />
    <glyph glyph-name="asciitilde" unicode="~" horiz-adv-x="1366" 
d="M1075 1503l33 -20q-49 -91 -126.5 -147t-152.5 -56q-31 0 -53.5 6t-128.5 41q-78 25 -109 32t-67 7q-54 0 -86 -20.5t-94 -94.5l-33 21q58 100 130.5 152.5t150.5 52.5q57 0 180 -43q111 -39 162 -39q111 0 194 108z" />
    <glyph glyph-name="Euro" 
d="M424 606h436l-41 -90h-391q9 -142 61 -258q78 -172 250 -172q200 0 338 190v-153q-75 -77 -162.5 -112.5t-201.5 -35.5q-218 0 -358 146t-162 395h-201l55 90h125h14q-2 18 -2 39q0 49 4 94h-163l55 90h121q38 246 176 389.5t336 143.5q172 0 270 -113l51 109h45v-402
h-57q-32 167 -98 243.5t-176 76.5q-165 0 -250 -178q-47 -99 -68 -269h531l-41 -90h-498q-2 -27 -2 -57q0 -27 4 -76z" />
    <glyph glyph-name="quotesinglbase" horiz-adv-x="481" 
d="M201 -244h-92q53 51 89 116t42 120h-9h-8q-47 0 -78.5 32.5t-31.5 81.5q0 55 35.5 90t91.5 35q61 0 97 -38.5t36 -104.5q0 -151 -172 -332z" />
    <glyph glyph-name="florin" 
d="M936 965l-10 -80h-228l-100 -566q-32 -185 -62 -283.5t-73 -158.5q-100 -139 -268 -139q-97 0 -157.5 46t-60.5 120q0 49 28 79.5t73 30.5q35 0 57.5 -19t22.5 -48q0 -17 -11 -45q-10 -36 -10 -49q0 -17 15 -29t38 -12q53 0 86 60.5t58 201.5l143 811h-145l8 76h29h51.5
t35.5 8t26 14.5t18 32t18 48.5t19 75q25 95 48 142t62 83q87 84 232 84q98 0 155.5 -44.5t57.5 -119.5q0 -49 -25.5 -77.5t-69.5 -28.5q-37 0 -60.5 18.5t-23.5 50.5q0 15 9 45q10 31 10 45q0 39 -47 39q-97 0 -131 -178l-41 -233h223z" />
    <glyph glyph-name="quotedblbase" horiz-adv-x="811" 
d="M201 -244h-92q53 51 89 116t42 120h-9h-8q-47 0 -78.5 32.5t-31.5 81.5q0 55 35.5 90t91.5 35q61 0 97 -38.5t36 -104.5q0 -151 -172 -332zM530 -244h-92q52 51 87.5 115.5t43.5 120.5h-8h-10q-46 0 -77.5 32.5t-31.5 81.5q0 55 35.5 90t91.5 35q61 0 97 -38.5t36 -104.5
q0 -79 -41 -158.5t-131 -173.5z" />
    <glyph glyph-name="ellipsis" unicode="&#x85;" horiz-adv-x="1533" 
d="M258 268q60 0 101.5 -42t41.5 -101q0 -61 -41.5 -103t-101.5 -42t-102.5 42t-42.5 101q0 61 41.5 103t103.5 42zM770 268q60 0 101.5 -42t41.5 -101q0 -61 -41.5 -103t-101.5 -42t-102.5 42t-42.5 101q0 61 41.5 103t103.5 42zM1282 268q58 0 99.5 -42t41.5 -101
q0 -60 -42 -102.5t-101 -42.5q-60 0 -102.5 42t-42.5 101q0 62 42 103.5t105 41.5z" />
    <glyph glyph-name="dagger" 
d="M446 -250l15 1067l-318 -22v180l318 -23l-15 379h199l-14 -379l317 23v-180l-317 22l14 -1067h-199z" />
    <glyph glyph-name="daggerdbl" 
d="M465 856l-315 -22v172l315 -23l-14 348h192l-14 -348l315 23v-172l-315 22v-614l315 22v-172l-315 23l14 -365h-192l14 365l-315 -23v172l315 -22v614z" />
    <glyph glyph-name="circumflex" horiz-adv-x="1024" 
d="M178 1112l334 344l336 -344h-98l-238 158l-236 -158h-98z" />
    <glyph glyph-name="perthousand" horiz-adv-x="1982" 
d="M356 1378q123 0 203 -92t80 -233q0 -142 -82 -237t-205 -95q-128 0 -208.5 92t-80.5 238q0 139 84 233t209 94zM354 1321q-133 0 -133 -270q0 -140 32 -206.5t99 -66.5t98 66t31 209q0 268 -127 268zM213 0l797 1366h98l-797 -1366h-98zM975 645q123 0 202.5 -92
t79.5 -234t-81.5 -236.5t-204.5 -94.5q-128 0 -208.5 91.5t-80.5 237.5q0 140 83.5 234t209.5 94zM973 588q-133 0 -133 -271q0 -140 32 -206t99 -66t98 65.5t31 208.5q0 269 -127 269zM1636 645q125 0 205 -92t80 -234t-82 -236.5t-205 -94.5q-129 0 -210 91.5t-81 237.5
q0 139 84 233.5t209 94.5zM1634 588q-133 0 -133 -271q0 -139 32.5 -205.5t100.5 -66.5q66 0 97.5 65.5t31.5 206.5q0 138 -31.5 204.5t-97.5 66.5z" />
    <glyph glyph-name="Scaron" horiz-adv-x="1105" 
d="M117 434h61q21 -135 76 -223q44 -72 121 -114t164 -42q115 0 192.5 71t77.5 175q0 57 -26.5 108.5t-73.5 86.5q-32 24 -63.5 43t-129.5 71q-132 71 -192 110t-95 75q-90 93 -90 233q0 160 116 259t302 99q91 0 157 -25.5t132 -86.5l65 125h41v-406h-61q-61 322 -305 322
q-104 0 -174 -66t-70 -164q0 -103 107 -174q41 -26 194 -104q158 -80 227 -133q142 -106 142 -293q0 -177 -119 -289t-305 -112q-102 0 -184 29.5t-166 96.5l-80 -145h-41v473zM922 1782l-342 -307h-48l-344 307h99l268 -146l268 146h99z" />
    <glyph glyph-name="guilsinglleft" horiz-adv-x="555" 
d="M373 967h67l-157 -478l157 -489h-67l-279 489z" />
    <glyph glyph-name="OE" horiz-adv-x="1939" 
d="M1010 1155v211h772l49 -340h-57q-38 159 -92 213.5t-173 54.5h-286v-549h274q68 0 91 31.5t30 138.5h65v-411h-65q-4 102 -28.5 136t-92.5 34h-274v-490q0 -69 25.5 -90.5t105.5 -21.5h135q90 0 141 26.5t94 94.5q47 77 70 167h59l-59 -360h-784v213
q-61 -123 -149 -179.5t-216 -56.5q-251 0 -404 195t-153 514q0 314 153 508.5t400 194.5q128 0 222.5 -59.5t146.5 -174.5zM672 1327q-170 0 -258 -163t-88 -478q0 -647 344 -647q167 0 253.5 163.5t86.5 481.5q0 643 -338 643z" />
    <glyph glyph-name="quoteleft" horiz-adv-x="481" 
d="M281 1376h92q-51 -50 -88 -115.5t-43 -119.5h8h10q46 0 77.5 -33t31.5 -82q0 -55 -36 -90t-93 -35q-60 0 -95.5 40t-35.5 106q0 157 172 329z" />
    <glyph glyph-name="quoteright" horiz-adv-x="481" 
d="M201 913h-92q53 53 89 117.5t42 120.5h-9q-4 -2 -10 -2q-46 0 -77 33t-31 82q0 55 36 90t93 35q60 0 95.5 -39t35.5 -105q0 -151 -172 -332z" />
    <glyph glyph-name="quotedblleft" horiz-adv-x="811" 
d="M610 1376h92q-51 -50 -88 -115.5t-43 -119.5h9h8q47 0 78.5 -33t31.5 -82q0 -55 -36 -90t-93 -35q-60 0 -95.5 39t-35.5 104q0 160 172 332zM281 1376h92q-51 -50 -88 -115.5t-43 -119.5h8h10q46 0 77.5 -33t31.5 -82q0 -55 -36 -90t-93 -35q-60 0 -95.5 40t-35.5 106
q0 157 172 329z" />
    <glyph glyph-name="quotedblright" horiz-adv-x="811" 
d="M201 913h-92q53 53 89 117.5t42 120.5h-9q-4 -2 -10 -2q-46 0 -77 33t-31 82q0 55 36 90t93 35q60 0 95.5 -39t35.5 -105q0 -151 -172 -332zM530 913h-92q53 53 88.5 117t42.5 121h-8q-4 -2 -10 -2q-46 0 -77.5 33t-31.5 82q0 55 36 90t93 35q60 0 95.5 -39t35.5 -105
q0 -151 -172 -332z" />
    <glyph glyph-name="bullet" horiz-adv-x="1366" 
d="M690 977q114 0 196.5 -83.5t82.5 -199.5q0 -118 -83 -201t-200 -83t-201 82.5t-84 199.5q0 120 83.5 202.5t205.5 82.5z" />
    <glyph glyph-name="endash" 
d="M147 481v92h799v-92h-799z" />
    <glyph glyph-name="emdash" horiz-adv-x="1290" 
d="M0 481v92h1290v-92h-1290z" />
    <glyph glyph-name="tilde" horiz-adv-x="1024" 
d="M233 1165l-61 19q28 76 40 101t32 48q58 64 135 64q64 0 149 -49q62 -36 85.5 -46t50.5 -10q43 0 67.5 20t59.5 83l61 -15q-58 -225 -215 -225q-39 0 -69 12t-111 58q-63 35 -101 35q-40 0 -67.5 -21.5t-55.5 -73.5z" />
    <glyph glyph-name="trademark" horiz-adv-x="1873" 
d="M451 1315v-645q0 -51 17 -64t89 -16v-49q-98 10 -182 10q-87 0 -185 -10v49q72 3 89.5 16t17.5 64v645h-45q-72 0 -107.5 -35.5t-60.5 -132.5h-49l41 219h598l41 -219h-47q-25 97 -60 132.5t-106 35.5h-51zM977 1253l-19 -583v-13q-2 -39 18 -51.5t89 -15.5v-49
q-99 6 -131 6q-26 0 -137 -6v49q70 3 87 16t19 64l19 573v6q3 49 -29 62q-20 7 -78 10v49q85 -6 131 -6q56 0 141 6l230 -557l231 557q85 -6 140 -6q44 0 127 6v-47q-71 -5 -89.5 -19t-17.5 -61l12 -573q0 -51 17.5 -64t87.5 -16v-49q-103 10 -183 10t-182 -10v49
q71 3 89 16t18 64l-11 579l-219 -532q-14 -33 -55 -148h-31q-17 56 -59 158z" />
    <glyph glyph-name="scaron" horiz-adv-x="903" 
d="M115 -31v359h53q47 -279 254 -279q80 0 135 49t55 119q0 43 -24.5 74.5t-87.5 68.5q-17 11 -51 27q-52 25 -138 72q-109 59 -150.5 114t-41.5 142q0 120 91 196t234 76q66 0 118 -17t106 -57l45 99h37v-332h-56q-15 124 -66 182t-145 58q-76 0 -130 -44.5t-54 -107.5
q0 -65 68 -109q70 -38 147 -75l1 -1h1l1 -1h1l1 -1h1l1 -1h1l1 -1h1l2 -1h1l1 -1h1l1 -1h1l1 -1h1l1 -1h1l1 -1q101 -49 138 -74q4 -3 10 -7q63 -43 90 -91.5t27 -119.5q0 -132 -95.5 -216.5t-244.5 -84.5q-75 0 -134 21.5t-122 72.5l-53 -105h-37zM801 1454l-334 -344
l-336 344h98l238 -158l235 158h99z" />
    <glyph glyph-name="guilsinglright" horiz-adv-x="557" 
d="M184 967l279 -478l-279 -489h-67l157 489l-157 478h67z" />
    <glyph glyph-name="oe" horiz-adv-x="1609" 
d="M1454 309h84q-26 -157 -128.5 -243t-260.5 -86q-204 0 -340 151q-69 -78 -144 -114.5t-167 -36.5q-186 0 -306 141.5t-120 359.5q0 220 124 363t314 143q174 0 301 -145q133 145 322 145q128 0 223 -64.5t139 -181.5q41 -105 41 -268h-610q3 -168 32 -254
q58 -164 230 -164q106 0 175 66t91 188zM504 932q-100 0 -151.5 -114.5t-51.5 -336.5q0 -229 49 -337.5t152 -108.5q198 0 198 440q0 236 -47.5 346.5t-148.5 110.5zM926 557h383q-6 200 -49.5 288.5t-135.5 88.5t-138 -89t-60 -288z" />
    <glyph glyph-name="Ydieresis" horiz-adv-x="1253" 
d="M514 592l-283 563q-41 85 -81 115.5t-119 36.5v65q161 -14 280 -14q121 0 279 14v-65q-78 -4 -107.5 -17.5t-29.5 -42.5q0 -25 26 -73l240 -478l233 469q29 53 29 86q0 28 -27.5 40t-103.5 16v65q117 -8 192 -8q76 0 193 8v-65q-81 -7 -117.5 -31t-70.5 -90l-299 -594
v-391q0 -89 29 -113.5t143 -28.5v-65q-189 14 -291 14q-101 0 -287 -14v65q114 4 143 28.5t29 113.5v391zM469 1739q55 0 94 -39.5t39 -93.5q0 -57 -38.5 -96.5t-94.5 -39.5t-95.5 39.5t-39.5 94.5q0 57 39 96t96 39zM842 1739q55 0 94 -39.5t39 -93.5q0 -57 -39 -96.5
t-96 -39.5q-55 0 -94 39t-39 95q0 57 39 96t96 39z" />
    <glyph glyph-name="nbspace" unicode="&#xa0;" horiz-adv-x="512" 
 />
    <glyph glyph-name="exclamdown" unicode="&#xa1;" horiz-adv-x="552" 
d="M340 528l59 -915h-243l59 915h125zM276 987q60 0 103 -42.5t43 -102.5q0 -61 -43 -103.5t-105 -42.5q-59 0 -101 43t-42 103t42.5 102.5t102.5 42.5z" />
    <glyph glyph-name="cent" unicode="&#xa2;" 
d="M645 1122v-866q78 12 130.5 81t64.5 175h82q-15 -136 -86.5 -221t-190.5 -107v-170h-65v164q-189 5 -305.5 143t-116.5 359q0 219 116 358t306 148v164h65v-168q92 -14 162 -84l61 104h37v-360h-55q-37 256 -205 280zM580 256v866q-102 -22 -147.5 -124t-45.5 -308
q0 -214 45 -314.5t148 -119.5z" />
    <glyph glyph-name="sterling" unicode="&#xa3;" 
d="M446 741h275v-79h-285l-22 -168q-36 -245 -172 -398q100 39 145 50.5t100 11.5q46 0 146 -19q79 -16 125 -16q75 0 120.5 50.5t71.5 164.5h70q-17 -186 -92.5 -262t-241.5 -76h-610q49 62 72.5 145.5t50.5 280.5l26 236h-149v79h160l18 146q29 236 151.5 369t311.5 133
q262 0 289 -304h-88q-12 117 -54.5 169.5t-124.5 52.5q-66 0 -122.5 -38.5t-90.5 -107.5q-36 -72 -59 -250z" />
    <glyph glyph-name="currency" unicode="&#xa4;" horiz-adv-x="1366" 
d="M104 213l195 195q-102 132 -102 290q0 153 102 289l-199 197l93 92l196 -197q76 55 144.5 79t150.5 24q80 0 148.5 -24t142.5 -79l196 195l91 -90l-197 -195q55 -75 79.5 -144t24.5 -149q0 -78 -23 -144.5t-77 -141.5l195 -197l-88 -92l-197 196q-137 -102 -293 -102
q-148 0 -295 102l-196 -196zM686 1036q-142 0 -241 -98.5t-99 -239.5q0 -139 99 -238.5t237 -99.5q139 0 237.5 99t98.5 239q0 138 -98 238t-234 100z" />
    <glyph glyph-name="yen" unicode="&#xa5;" 
d="M391 668l-57 151h-244v78h213l-100 258q-34 86 -68.5 116t-107.5 36v65q155 -14 262 -14t260 14v-65q-72 -4 -101.5 -18t-29.5 -42q0 -16 22 -73l176 -476l187 467q24 65 24 86q0 28 -26 40t-99 16v65q120 -8 185 -8t182 8v-65q-79 -7 -116 -32.5t-62 -88.5l-117 -289
h207v-78h-238l-61 -151h299v-78h-330v-389q0 -62 12 -89t46.5 -38.5t113.5 -14.5v-65q-181 14 -286 14q-108 0 -289 -14v65q79 3 113.5 14.5t46.5 38.5t12 89v389h-330v78h301z" />
    <glyph glyph-name="brokenbar" unicode="&#xa6;" horiz-adv-x="1024" 
d="M449 1366h129v-694h-129v694zM449 313h129v-655h-129v655z" />
    <glyph glyph-name="section" unicode="&#xa7;" 
d="M145 57h82q15 -136 88.5 -207t196.5 -71q101 0 163 54t62 142q0 58 -29.5 100t-99.5 81l-289 166q-93 52 -135.5 117.5t-42.5 156.5q0 92 45 147.5t152 96.5q-89 63 -123.5 115.5t-34.5 127.5q0 133 102.5 219.5t260.5 86.5q172 0 270.5 -94.5t104.5 -264.5h-78
q-9 126 -74 194t-174 68q-92 0 -151.5 -50.5t-59.5 -127.5q0 -56 30 -93t111 -81l242 -133q99 -55 142.5 -117.5t43.5 -148.5q0 -89 -44 -153t-142 -118q91 -57 130.5 -116t39.5 -138q0 -141 -109.5 -232t-279.5 -91q-180 0 -286 97t-114 267zM707 629l-297 170
q-79 -25 -113.5 -59.5t-34.5 -90.5q0 -51 28.5 -87t100.5 -77l311 -180q71 37 101.5 74.5t30.5 89.5q0 47 -29 83.5t-98 76.5z" />
    <glyph glyph-name="dieresis" unicode="&#xa8;" horiz-adv-x="1024" 
d="M313 1415q51 0 87 -38.5t36 -92.5q0 -56 -36.5 -94.5t-88.5 -38.5q-51 0 -88 38.5t-37 92.5q0 56 36.5 94.5t90.5 38.5zM717 1415q51 0 87 -38.5t36 -92.5q0 -56 -36.5 -94.5t-88.5 -38.5t-88.5 38.5t-36.5 92.5q0 56 36.5 94.5t90.5 38.5z" />
    <glyph glyph-name="copyright" unicode="&#xa9;" horiz-adv-x="1593" 
d="M1051 565h51q-3 -142 -85.5 -225.5t-219.5 -83.5q-166 0 -265.5 116.5t-99.5 311.5t101 311.5t270 116.5q124 0 213 -80l41 78h33v-272h-46q-25 110 -79.5 163.5t-143.5 53.5q-229 0 -229 -357q0 -356 233 -356q100 0 159 58.5t67 164.5zM797 1389q143 0 273.5 -56
t225 -150.5t150 -225t55.5 -273.5q0 -146 -56 -277t-151.5 -225t-228 -149.5t-279.5 -55.5q-187 0 -347.5 95.5t-254.5 258.5t-94 353q0 191 94.5 353.5t257.5 257t355 94.5zM797 1313q-128 0 -245 -49.5t-201.5 -134t-134.5 -201t-50 -244.5q0 -169 84 -314.5t227.5 -231
t310.5 -85.5q131 0 249 49.5t203 133.5t135 201t50 247q0 127 -50 243.5t-134 201t-200.5 134.5t-243.5 50z" />
    <glyph glyph-name="ordfeminine" unicode="&#xaa;" horiz-adv-x="729" 
d="M664 817v-45q-56 -12 -93 -12q-110 0 -122 102q-32 -56 -73 -80t-102 -24q-86 0 -139 47.5t-53 122.5q0 180 348 227v78q0 63 -22 90t-74 27q-40 0 -66 -17t-26 -43q0 -1 2 -24q2 -6 2 -21q0 -67 -68 -67q-57 0 -57 57q0 67 68 114.5t163 47.5q63 0 115 -23t80 -63
q33 -46 33 -170v-238q0 -54 9 -73t34 -19q11 0 41 6zM428 997v113q-110 -23 -152.5 -59t-42.5 -107q0 -52 25 -82.5t68 -30.5q49 0 76.5 35t27.5 95zM55 651h635v-76h-635v76z" />
    <glyph glyph-name="guillemotleft" unicode="&#xab;" horiz-adv-x="882" 
d="M375 967h63l-157 -478l157 -489h-63l-281 489zM700 967h66l-158 -478l158 -489h-66l-278 489z" />
    <glyph glyph-name="logicalnot" unicode="&#xac;" horiz-adv-x="1024" 
d="M731 0v451h-661v96h882v-547h-221z" />
    <glyph glyph-name="sfthyphen" unicode="&#xad;" horiz-adv-x="536" 
d="M0 481v103h537v-103h-537z" />
    <glyph glyph-name="registered" unicode="&#xae;" horiz-adv-x="1593" 
d="M692 647v-250q0 -50 18.5 -63.5t88.5 -16.5v-47q-120 9 -178 9q-59 0 -185 -9v47q72 3 89.5 16t17.5 64v568q0 50 -18 63t-89 16v48h365q130 0 192 -41q46 -28 74.5 -77.5t28.5 -103.5q0 -94 -72 -153q-38 -31 -121 -53q37 -14 58 -35.5t47 -73.5l75 -162q23 -47 42 -61
t65 -15v-47q-94 4 -103 4q-10 0 -100 -4q-26 45 -39 76l-94 205q-25 57 -51.5 76.5t-77.5 19.5h-33zM696 698h76q170 0 170 172q0 170 -162 170h-84v-342zM797 1389q143 0 273.5 -56t225 -150.5t150 -225t55.5 -273.5q0 -146 -56 -277t-151.5 -225t-228 -149.5t-279.5 -55.5
q-187 0 -347.5 95.5t-254.5 258.5t-94 353q0 191 94.5 353.5t257.5 257t355 94.5zM797 1313q-128 0 -245 -49.5t-201.5 -134t-134.5 -201t-50 -244.5q0 -169 84 -314.5t227.5 -231t310.5 -85.5q131 0 249 49.5t203 133.5t135 201t50 247q0 127 -50 243.5t-134 201
t-200.5 134.5t-243.5 50z" />
    <glyph glyph-name="macron" unicode="&#xaf;" horiz-adv-x="1024" 
d="M168 1204v119h690v-119h-690z" />
    <glyph glyph-name="degree" unicode="&#xb0;" horiz-adv-x="1024" 
d="M510 1397q123 0 209 -83.5t86 -203.5t-85.5 -204.5t-207.5 -84.5q-124 0 -209.5 84.5t-85.5 206.5q0 117 86.5 201t206.5 84zM510 1292q-75 0 -129.5 -53.5t-54.5 -126.5q0 -78 54 -132t132 -54q75 0 129.5 53.5t54.5 128.5q0 76 -54.5 130t-131.5 54z" />
    <glyph glyph-name="plusminus" unicode="&#xb1;" 
d="M100 614v152h367v362h158v-362h368v-152h-368v-329h-158v329h-367zM100 25v149h893v-149h-893z" />
    <glyph glyph-name="twosuperior" unicode="&#xb2;" horiz-adv-x="712" 
d="M616 659l-20 -127h-506v107q195 198 273.5 307.5t78.5 181.5q0 51 -36 84t-91 33q-65 0 -101.5 -35.5t-51.5 -113.5h-64q7 70 20 107t40 67q73 76 200 76q104 0 172 -55.5t68 -141.5q0 -58 -34 -118.5t-118 -153.5q-63 -70 -213 -218h383z" />
    <glyph glyph-name="threesuperior" unicode="&#xb3;" horiz-adv-x="712" 
d="M76 766h59q12 -80 51.5 -116t114.5 -36q79 0 125.5 43t46.5 115q0 79 -50 115.5t-159 36.5h-26v57h26q89 0 131.5 34t42.5 105q0 60 -34.5 95.5t-92.5 35.5q-61 0 -97.5 -32t-55.5 -103h-58q24 230 252 230q106 0 171 -55t65 -146q0 -64 -36.5 -111.5t-102.5 -70.5
q174 -46 174 -199q0 -106 -81 -175t-204 -69q-122 0 -189 63t-73 183z" />
    <glyph glyph-name="acute" unicode="&#xb4;" horiz-adv-x="1024" 
d="M465 1124l151 293h330l-385 -293h-96z" />
    <glyph glyph-name="mu" unicode="&#xb5;" horiz-adv-x="925" 
d="M952 106v-34l-188 -92q-3 -3 -8 -3q-75 0 -99 127l-8 39q-109 -107 -166.5 -140.5t-134.5 -33.5q-86 0 -139.5 43t-85.5 138v-56q0 -68 4.5 -103t30.5 -177q12 -62 12 -103q0 -44 -25 -73t-63 -29t-63 28t-25 72q0 36 14 125q26 137 43 342t17 379v381h172v-586
q0 -95 10.5 -144t36.5 -83q43 -53 121 -53q66 0 119.5 35t111.5 118v713h170v-690q0 -93 17.5 -126.5t64.5 -33.5q25 0 61 20z" />
    <glyph glyph-name="paragraph" unicode="&#xb6;" 
d="M1036 -225v-66q-238 17 -409 17q-174 0 -412 -17v66q113 5 142.5 29t29.5 112v719q-164 23 -250 119t-86 256q0 226 170 309q94 47 301 47h514v-66q-114 -6 -143 -29.5t-29 -111.5v-1243q0 -88 29.5 -112t142.5 -29zM715 -61v1210q0 91 -15.5 116t-70.5 25
q-57 0 -74.5 -26t-17.5 -111v-1214q0 -88 17 -115t73 -27q55 0 71.5 26.5t16.5 115.5z" />
    <glyph glyph-name="middot" unicode="&#xb7;" horiz-adv-x="512" 
d="M258 645q60 0 101.5 -42t41.5 -101q0 -60 -41.5 -103t-101.5 -43t-102.5 42.5t-42.5 101.5q0 62 41.5 103.5t103.5 41.5z" />
    <glyph glyph-name="cedilla" unicode="&#xb8;" horiz-adv-x="1024" 
d="M502 0h92l-64 -111q89 -5 132 -39.5t43 -101.5q0 -69 -52 -112.5t-135 -43.5q-66 0 -164 35v68q67 -21 111 -21q40 0 65 22.5t25 59.5q0 43 -34.5 63.5t-110.5 20.5z" />
    <glyph glyph-name="onesuperior" unicode="&#xb9;" horiz-adv-x="712" 
d="M440 1368v-711q0 -50 18 -63t89 -16v-50q-107 11 -180 11q-76 0 -183 -11v50q71 3 89 16t18 63v531h-141v47q85 4 150 40t93 93h47z" />
    <glyph glyph-name="ordmasculine" unicode="&#xba;" horiz-adv-x="729" 
d="M373 1397q120 0 195 -89.5t75 -232.5q0 -135 -80 -226t-198 -91q-121 0 -200 89.5t-79 227.5q0 140 81.5 231t205.5 91zM367 1354q-125 0 -125 -277q0 -142 30 -209t95 -67q120 0 120 270q0 147 -28.5 215t-91.5 68zM47 651h635v-76h-635v76z" />
    <glyph glyph-name="guillemotright" unicode="&#xbb;" horiz-adv-x="882" 
d="M508 967l280 -478l-280 -489h-64l158 489l-158 478h64zM180 967l281 -478l-281 -489h-63l157 489l-157 478h63z" />
    <glyph glyph-name="onequarter" unicode="&#xbc;" horiz-adv-x="1544" 
d="M442 1368v-713q0 -49 17.5 -61.5t89.5 -15.5v-50q-117 9 -182 9q-66 0 -183 -9v50q72 3 89.5 15.5t17.5 61.5v531h-141v47q86 6 151.5 42t91.5 93h49zM334 0l778 1333h98l-778 -1333h-98zM1210 -12v209h-338l332 628h160v-520h141v-108h-141v-209h-154zM1217 305v422
l-220 -422h220z" />
    <glyph glyph-name="onehalf" unicode="&#xbd;" horiz-adv-x="1544" 
d="M442 1368v-713q0 -49 17.5 -61.5t89.5 -15.5v-50q-117 9 -182 9q-66 0 -183 -9v50q72 3 89.5 15.5t17.5 61.5v531h-141v47q86 6 151.5 42t91.5 93h49zM334 0l778 1333h98l-778 -1333h-98zM1448 127l-21 -127h-505v106q195 198 273.5 307.5t78.5 182.5q0 52 -35.5 84.5
t-91.5 32.5q-65 0 -102 -36t-52 -114h-63q7 71 19.5 107.5t39.5 66.5q73 76 201 76q104 0 172 -55.5t68 -141.5q0 -58 -34 -118.5t-118 -151.5q-38 -44 -213 -219h383z" />
    <glyph glyph-name="threequarters" unicode="&#xbe;" horiz-adv-x="1544" 
d="M76 768h61q10 -78 50.5 -114t115.5 -36q78 0 124 42t46 114q0 78 -50.5 115t-158.5 37h-26v57h28q172 0 172 139q0 59 -34.5 94t-92.5 35q-61 0 -96.5 -32t-54.5 -103h-60q24 230 252 230q106 0 171 -55t65 -146q0 -125 -137 -180q90 -25 132 -73t42 -126
q0 -104 -81 -174t-204 -70t-189.5 62t-74.5 184zM336 0l776 1333h98l-776 -1333h-98zM1210 -12v209h-338l332 628h160v-520h141v-108h-141v-209h-154zM1217 305v422l-220 -422h220z" />
    <glyph glyph-name="questiondown" unicode="&#xbf;" horiz-adv-x="839" 
d="M440 539h90q1 -16 3 -44.5t2 -43.5q0 -104 -29 -164.5t-131 -171.5q-59 -65 -82 -109.5t-23 -95.5q0 -77 48.5 -122.5t130.5 -45.5q103 0 164 59.5t73 173.5h72q0 -94 -19 -154t-63 -110q-108 -117 -295 -117q-148 0 -238 86.5t-90 227.5q0 92 44.5 164t148.5 147
q118 86 157 146t39 151q0 13 -2 23zM467 987q60 0 102.5 -42.5t42.5 -102.5q0 -61 -42.5 -103.5t-104.5 -42.5q-59 0 -101 43t-42 103t42.5 102.5t102.5 42.5z" />
    <glyph glyph-name="Agrave" unicode="&#xc0;" horiz-adv-x="1361" 
d="M838 379h-461l-60 -164q-24 -71 -24 -92q0 -34 28 -47t113 -17v-65q-120 10 -207 10q-85 0 -207 -10v65q98 4 137.5 36t86.5 145l461 1173l438 -1218q28 -78 65.5 -104t132.5 -32v-65q-161 14 -284 14t-287 -14v65q85 4 113 16t28 42q0 19 -14 73zM408 455h405l-186 571z
M815 1481h-108l-459 274h356z" />
    <glyph glyph-name="Aacute" unicode="&#xc1;" horiz-adv-x="1361" 
d="M838 379h-461l-60 -164q-24 -71 -24 -92q0 -34 28 -47t113 -17v-65q-120 10 -207 10q-85 0 -207 -10v65q98 4 137.5 36t86.5 145l461 1173l438 -1218q28 -78 65.5 -104t132.5 -32v-65q-161 14 -284 14t-287 -14v65q85 4 113 16t28 42q0 19 -14 73zM408 455h405l-186 571z
M598 1481l209 274h358l-458 -274h-109z" />
    <glyph glyph-name="Acircumflex" unicode="&#xc2;" horiz-adv-x="1361" 
d="M838 379h-461l-60 -164q-24 -71 -24 -92q0 -34 28 -47t113 -17v-65q-120 10 -207 10q-85 0 -207 -10v65q98 4 137.5 36t86.5 145l461 1173l438 -1218q28 -78 65.5 -104t132.5 -32v-65q-161 14 -284 14t-287 -14v65q85 4 113 16t28 42q0 19 -14 73zM408 455h405l-186 571z
M334 1477l344 305h47l344 -305h-100l-267 143l-268 -143h-100z" />
    <glyph glyph-name="Atilde" unicode="&#xc3;" horiz-adv-x="1361" 
d="M838 379h-461l-60 -164q-24 -71 -24 -92q0 -34 28 -47t113 -17v-65q-120 10 -207 10q-85 0 -207 -10v65q98 4 137.5 36t86.5 145l461 1173l438 -1218q28 -78 65.5 -104t132.5 -32v-65q-161 14 -284 14t-287 -14v65q85 4 113 16t28 42q0 19 -14 73zM408 455h405l-186 571z
M424 1501l-64 17q25 70 39 98.5t35 52.5q58 64 137 64q65 0 154 -52q63 -36 86.5 -45.5t52.5 -9.5q43 0 69 21t60 84l64 -15q-31 -116 -85 -171.5t-136 -55.5q-40 0 -71.5 12.5t-113.5 59.5q-61 34 -102 34t-70 -21.5t-55 -72.5z" />
    <glyph glyph-name="Adieresis" unicode="&#xc4;" horiz-adv-x="1361" 
d="M838 379h-461l-60 -164q-24 -71 -24 -92q0 -34 28 -47t113 -17v-65q-120 10 -207 10q-85 0 -207 -10v65q98 4 137.5 36t86.5 145l461 1173l438 -1218q28 -78 65.5 -104t132.5 -32v-65q-161 14 -284 14t-287 -14v65q85 4 113 16t28 42q0 19 -14 73zM408 455h405l-186 571z
M516 1741q55 0 94 -39.5t39 -93.5q0 -57 -38.5 -96t-94.5 -39t-95.5 39t-39.5 94q0 57 39 96t96 39zM889 1741q55 0 94 -39.5t39 -93.5q0 -57 -39 -96t-96 -39q-55 0 -94 38.5t-39 94.5q0 57 39 96t96 39z" />
    <glyph glyph-name="Aring" unicode="&#xc5;" horiz-adv-x="1361" 
d="M838 379h-461l-60 -164q-24 -71 -24 -92q0 -34 28 -47t113 -17v-65q-120 10 -207 10q-85 0 -207 -10v65q98 4 137.5 36t86.5 145l461 1173l438 -1218q28 -78 65.5 -104t132.5 -32v-65q-161 14 -284 14t-287 -14v65q85 4 113 16t28 42q0 19 -14 73zM408 455h405l-186 571z
M705 1808q72 0 124 -53t52 -125q0 -75 -52.5 -127.5t-126.5 -52.5t-126 52t-52 126q0 75 53 127.5t128 52.5zM705 1726q-41 0 -70 -28.5t-29 -69.5q0 -40 28 -68t68 -28t68.5 28.5t28.5 69.5q0 40 -28 68t-66 28z" />
    <glyph glyph-name="AE" unicode="&#xc6;" horiz-adv-x="1884" 
d="M1729 1366l49 -340h-58q-38 160 -91.5 214t-172.5 54h-266v-549h254q68 0 91 32t30 138h65v-411h-65q-4 101 -28.5 135.5t-92.5 34.5h-254v-490q0 -69 24 -90.5t101 -21.5h121q90 0 141 26.5t94 94.5q47 77 70 167h59l-59 -360h-957v66q115 6 143.5 29t28.5 112v235h-491
l-143 -256q-27 -46 -27 -73q0 -29 27.5 -40t107.5 -14v-65q-159 8 -205 8q-44 0 -205 -8v65q89 4 132 34.5t100 129.5l657 1143h820zM508 518h448v787z" />
    <glyph glyph-name="Ccedilla" unicode="&#xc7;" horiz-adv-x="1280" 
d="M707 -29l-48 -84q93 -3 137 -38t44 -107t-53 -117t-138 -45q-74 0 -170 35v70q78 -19 113 -19q41 0 67.5 23.5t26.5 60.5q0 46 -35.5 66t-115.5 20l77 137q-233 26 -368 213.5t-135 483.5q0 337 153.5 532t417.5 195q107 0 188 -33t156 -107l70 138h41v-445h-58
q-35 138 -82 211q-44 72 -118.5 113t-163.5 41q-97 0 -169.5 -47t-113.5 -138q-78 -176 -78 -436q0 -295 93 -445.5t276 -150.5q158 0 255 101t109 278h70q-1 -215 -124 -353.5t-324 -152.5z" />
    <glyph glyph-name="Egrave" unicode="&#xc8;" horiz-adv-x="1163" 
d="M1075 360l-59 -360h-957v66q114 6 143 29.5t29 111.5v952q0 89 -28.5 112t-143.5 29v66h945l49 -340h-58q-40 160 -93 214t-171 54h-266v-549h254q68 0 91 32t30 138h65v-411h-65q-4 102 -28.5 136t-92.5 34h-254v-490q0 -69 24 -90.5t101 -21.5h121q90 0 141 26.5
t94 94.5q47 77 70 167h59zM776 1468h-108l-459 275h356z" />
    <glyph glyph-name="Eacute" unicode="&#xc9;" horiz-adv-x="1163" 
d="M1075 360l-59 -360h-957v66q114 6 143 29.5t29 111.5v952q0 89 -28.5 112t-143.5 29v66h945l49 -340h-58q-40 160 -93 214t-171 54h-266v-549h254q68 0 91 32t30 138h65v-411h-65q-4 102 -28.5 136t-92.5 34h-254v-490q0 -69 24 -90.5t101 -21.5h121q90 0 141 26.5
t94 94.5q47 77 70 167h59zM451 1468l208 275h359l-459 -275h-108z" />
    <glyph glyph-name="Ecircumflex" unicode="&#xca;" horiz-adv-x="1163" 
d="M1075 360l-59 -360h-957v66q114 6 143 29.5t29 111.5v952q0 89 -28.5 112t-143.5 29v66h945l49 -340h-58q-40 160 -93 214t-171 54h-266v-549h254q68 0 91 32t30 138h65v-411h-65q-4 102 -28.5 136t-92.5 34h-254v-490q0 -69 24 -90.5t101 -21.5h121q90 0 141 26.5
t94 94.5q47 77 70 167h59zM207 1456l366 328l367 -328h-100l-267 143l-266 -143h-100z" />
    <glyph glyph-name="Edieresis" unicode="&#xcb;" horiz-adv-x="1163" 
d="M1075 360l-59 -360h-957v66q114 6 143 29.5t29 111.5v952q0 89 -28.5 112t-143.5 29v66h945l49 -340h-58q-40 160 -93 214t-171 54h-266v-549h254q68 0 91 32t30 138h65v-411h-65q-4 102 -28.5 136t-92.5 34h-254v-490q0 -69 24 -90.5t101 -21.5h121q90 0 141 26.5
t94 94.5q47 77 70 167h59zM387 1739q55 0 94 -39.5t39 -93.5q0 -57 -38.5 -96.5t-94.5 -39.5t-95.5 39.5t-39.5 94.5q0 57 39 96t96 39zM760 1739q55 0 94 -39.5t39 -93.5q0 -57 -39 -96.5t-96 -39.5q-55 0 -94 39t-39 95q0 57 39 96t96 39z" />
    <glyph glyph-name="Igrave" unicode="&#xcc;" horiz-adv-x="692" 
d="M229 201v964q0 88 -30 113t-142 29v65q183 -14 289 -14t289 14v-65q-113 -5 -142.5 -29t-29.5 -113v-964q0 -48 4.5 -72t24.5 -40.5t50.5 -21.5t92.5 -8v-65q-186 14 -289 14t-289 -14v65q62 3 92.5 8t50.5 21.5t24.5 40.5t4.5 72zM473 1468h-108l-418 275h344z" />
    <glyph glyph-name="Iacute" unicode="&#xcd;" horiz-adv-x="692" 
d="M229 201v964q0 88 -30 113t-142 29v65q183 -14 289 -14t289 14v-65q-113 -5 -142.5 -29t-29.5 -113v-964q0 -48 4.5 -72t24.5 -40.5t50.5 -21.5t92.5 -8v-65q-186 14 -289 14t-289 -14v65q62 3 92.5 8t50.5 21.5t24.5 40.5t4.5 72zM229 1468l181 275h344l-418 -275h-107z
" />
    <glyph glyph-name="Icircumflex" unicode="&#xce;" horiz-adv-x="692" 
d="M229 201v964q0 88 -30 113t-142 29v65q183 -14 289 -14t289 14v-65q-113 -5 -142.5 -29t-29.5 -113v-964q0 -48 4.5 -72t24.5 -40.5t50.5 -21.5t92.5 -8v-65q-186 14 -289 14t-289 -14v65q62 3 92.5 8t50.5 21.5t24.5 40.5t4.5 72zM20 1456l326 328l326 -328h-101
l-225 143l-225 -143h-101z" />
    <glyph glyph-name="Idieresis" unicode="&#xcf;" horiz-adv-x="692" 
d="M229 201v964q0 88 -30 113t-142 29v65q183 -14 289 -14t289 14v-65q-113 -5 -142.5 -29t-29.5 -113v-964q0 -48 4.5 -72t24.5 -40.5t50.5 -21.5t92.5 -8v-65q-186 14 -289 14t-289 -14v65q62 3 92.5 8t50.5 21.5t24.5 40.5t4.5 72zM174 1737q54 0 91.5 -38t37.5 -91
q0 -55 -37.5 -93t-91.5 -38t-92.5 38t-38.5 91q0 56 37.5 93.5t93.5 37.5zM520 1737q54 0 91.5 -38t37.5 -91q0 -55 -37.5 -93t-91.5 -38t-92.5 37.5t-38.5 91.5q0 56 37.5 93.5t93.5 37.5z" />
    <glyph glyph-name="Eth" unicode="&#xd0;" horiz-adv-x="1329" 
d="M227 678h-172v78h172v403q0 89 -28.5 112t-143.5 29v66h551q145 0 244.5 -32.5t179.5 -106.5q100 -94 156.5 -237t56.5 -304q0 -164 -60 -311t-163 -238q-84 -71 -193 -104t-262 -33h-510v66q114 6 143 29.5t29 111.5v471zM461 1294v-538h280v-78h-280v-510
q0 -63 21 -80.5t93 -17.5q114 0 188.5 27t121.5 87q123 153 123 512q0 317 -113 471q-93 127 -295 127h-139z" />
    <glyph glyph-name="Ntilde" unicode="&#xd1;" horiz-adv-x="1400" 
d="M1176 -37h-39q-70 111 -109 166q-102 148 -123 176l-602 848v-952q0 -89 29 -113.5t143 -28.5v-65q-133 8 -211 8q-79 0 -207 -8v65q114 4 143 28.5t29 113.5v1034q-38 37 -77 53t-97 19v65q120 -6 191 -6q68 0 176 6l680 -948v741q0 88 -30 113t-142 29v65
q133 -8 211 -8q79 0 207 8v-65q-113 -5 -142.5 -29t-29.5 -113v-1202zM430 1489l-70 22q43 120 90 167.5t123 47.5q64 0 152 -49q59 -35 84.5 -45t50.5 -10q43 0 69.5 23.5t57.5 87.5l70 -23q-31 -116 -85 -171.5t-136 -55.5q-41 0 -73 12.5t-110 58.5q-63 35 -100 35
q-41 0 -69.5 -23t-53.5 -77z" />
    <glyph glyph-name="Ograve" unicode="&#xd2;" horiz-adv-x="1339" 
d="M668 1397q137 0 253 -56t191 -159q139 -186 139 -506q0 -321 -158.5 -514t-422.5 -193q-267 0 -424.5 193t-157.5 520q0 325 158 520t422 195zM676 1335q-164 0 -254 -167t-90 -474q0 -189 32 -334.5t91 -220.5q83 -108 213 -108q169 0 254.5 165.5t85.5 489.5
q0 649 -332 649zM823 1481h-108l-459 274h356z" />
    <glyph glyph-name="Oacute" unicode="&#xd3;" horiz-adv-x="1339" 
d="M668 1397q137 0 253 -56t191 -159q139 -186 139 -506q0 -321 -158.5 -514t-422.5 -193q-267 0 -424.5 193t-157.5 520q0 325 158 520t422 195zM676 1335q-164 0 -254 -167t-90 -474q0 -189 32 -334.5t91 -220.5q83 -108 213 -108q169 0 254.5 165.5t85.5 489.5
q0 649 -332 649zM553 1481l209 274h358l-458 -274h-109z" />
    <glyph glyph-name="Ocircumflex" unicode="&#xd4;" horiz-adv-x="1339" 
d="M668 1397q137 0 253 -56t191 -159q139 -186 139 -506q0 -321 -158.5 -514t-422.5 -193q-267 0 -424.5 193t-157.5 520q0 325 158 520t422 195zM676 1335q-164 0 -254 -167t-90 -474q0 -189 32 -334.5t91 -220.5q83 -108 213 -108q169 0 254.5 165.5t85.5 489.5
q0 649 -332 649zM303 1456l367 328l366 -328h-100l-266 143l-267 -143h-100z" />
    <glyph glyph-name="Otilde" unicode="&#xd5;" horiz-adv-x="1339" 
d="M668 1397q137 0 253 -56t191 -159q139 -186 139 -506q0 -321 -158.5 -514t-422.5 -193q-267 0 -424.5 193t-157.5 520q0 325 158 520t422 195zM676 1335q-164 0 -254 -167t-90 -474q0 -189 32 -334.5t91 -220.5q83 -108 213 -108q169 0 254.5 165.5t85.5 489.5
q0 649 -332 649zM403 1489l-69 22q43 120 90 167.5t123 47.5q63 0 151 -49q59 -34 85 -44.5t51 -10.5q43 0 69.5 23.5t57.5 87.5l69 -23q-31 -116 -85 -171.5t-136 -55.5q-40 0 -72 12t-110 59q-63 35 -101 35q-41 0 -69.5 -23t-53.5 -77z" />
    <glyph glyph-name="Odieresis" unicode="&#xd6;" horiz-adv-x="1339" 
d="M668 1397q137 0 253 -56t191 -159q139 -186 139 -506q0 -321 -158.5 -514t-422.5 -193q-267 0 -424.5 193t-157.5 520q0 325 158 520t422 195zM676 1335q-164 0 -254 -167t-90 -474q0 -189 32 -334.5t91 -220.5q83 -108 213 -108q169 0 254.5 165.5t85.5 489.5
q0 649 -332 649zM483 1739q55 0 94 -39.5t39 -93.5q0 -57 -38.5 -96.5t-94.5 -39.5t-95.5 39.5t-39.5 94.5q0 57 39 96t96 39zM856 1739q55 0 94 -39.5t39 -93.5q0 -57 -39 -96.5t-96 -39.5q-55 0 -94 39t-39 95q0 57 39 96t96 39z" />
    <glyph glyph-name="multiply" unicode="&#xd7;" 
d="M139 987l111 111l301 -301l295 297l106 -105l-297 -297l301 -301l-110 -110l-301 301l-297 -297l-105 106l297 295z" />
    <glyph glyph-name="Oslash" unicode="&#xd8;" horiz-adv-x="1339" 
d="M1192 1366h98l-166 -197q127 -187 127 -481q0 -327 -157.5 -523t-421.5 -196q-121 0 -226 43t-182 123l-114 -135h-97l164 195q-129 199 -129 481q0 329 159.5 525t426.5 196q244 0 401 -168zM356 354l607 748q-85 233 -283 233q-172 0 -264 -173t-92 -496
q0 -160 32 -312zM985 1014l-604 -748q37 -114 110.5 -174.5t174.5 -60.5q173 0 261.5 172.5t88.5 509.5q0 172 -31 301z" />
    <glyph glyph-name="Ugrave" unicode="&#xd9;" horiz-adv-x="1394" 
d="M1178 1165v-698q0 -114 -18 -183.5t-62 -129.5q-62 -86 -164.5 -131.5t-235.5 -45.5q-247 0 -379 150q-54 60 -77 134t-23 188v716q0 88 -30 113t-142 29v65q183 -14 289 -14q108 0 289 14v-65q-113 -5 -142.5 -29t-29.5 -113v-753q0 -85 13.5 -138.5t45.5 -91.5
q81 -96 248 -96q100 0 179.5 37.5t117.5 103.5q47 78 47 248v690q0 89 -29.5 113t-142.5 29v65q133 -8 211 -8q79 0 207 8v-65q-112 -4 -142 -29t-30 -113zM895 1468h-109l-458 275h356z" />
    <glyph glyph-name="Uacute" unicode="&#xda;" horiz-adv-x="1394" 
d="M1178 1165v-698q0 -114 -18 -183.5t-62 -129.5q-62 -86 -164.5 -131.5t-235.5 -45.5q-247 0 -379 150q-54 60 -77 134t-23 188v716q0 88 -30 113t-142 29v65q183 -14 289 -14q108 0 289 14v-65q-113 -5 -142.5 -29t-29.5 -113v-753q0 -85 13.5 -138.5t45.5 -91.5
q81 -96 248 -96q100 0 179.5 37.5t117.5 103.5q47 78 47 248v690q0 89 -29.5 113t-142.5 29v65q133 -8 211 -8q79 0 207 8v-65q-112 -4 -142 -29t-30 -113zM606 1468l209 275h359l-459 -275h-109z" />
    <glyph glyph-name="Ucircumflex" unicode="&#xdb;" horiz-adv-x="1394" 
d="M1178 1165v-698q0 -114 -18 -183.5t-62 -129.5q-62 -86 -164.5 -131.5t-235.5 -45.5q-247 0 -379 150q-54 60 -77 134t-23 188v716q0 88 -30 113t-142 29v65q183 -14 289 -14q108 0 289 14v-65q-113 -5 -142.5 -29t-29.5 -113v-753q0 -85 13.5 -138.5t45.5 -91.5
q81 -96 248 -96q100 0 179.5 37.5t117.5 103.5q47 78 47 248v690q0 89 -29.5 113t-142.5 29v65q133 -8 211 -8q79 0 207 8v-65q-112 -4 -142 -29t-30 -113zM377 1456l366 328l367 -328h-100l-267 143l-266 -143h-100z" />
    <glyph glyph-name="Udieresis" unicode="&#xdc;" horiz-adv-x="1394" 
d="M1178 1165v-698q0 -114 -18 -183.5t-62 -129.5q-62 -86 -164.5 -131.5t-235.5 -45.5q-247 0 -379 150q-54 60 -77 134t-23 188v716q0 88 -30 113t-142 29v65q183 -14 289 -14q108 0 289 14v-65q-113 -5 -142.5 -29t-29.5 -113v-753q0 -85 13.5 -138.5t45.5 -91.5
q81 -96 248 -96q100 0 179.5 37.5t117.5 103.5q47 78 47 248v690q0 89 -29.5 113t-142.5 29v65q133 -8 211 -8q79 0 207 8v-65q-112 -4 -142 -29t-30 -113zM557 1739q55 0 94 -39.5t39 -93.5q0 -57 -38.5 -96.5t-94.5 -39.5t-95.5 39.5t-39.5 94.5q0 57 39 96t96 39z
M930 1739q55 0 94 -39.5t39 -93.5q0 -57 -39 -96.5t-96 -39.5q-55 0 -94 39t-39 95q0 57 39 96t96 39z" />
    <glyph glyph-name="Yacute" unicode="&#xdd;" horiz-adv-x="1253" 
d="M514 592l-283 563q-41 85 -81 115.5t-119 36.5v65q161 -14 280 -14q121 0 279 14v-65q-78 -4 -107.5 -17.5t-29.5 -42.5q0 -25 26 -73l240 -478l233 469q29 53 29 86q0 28 -27.5 40t-103.5 16v65q117 -8 192 -8q76 0 193 8v-65q-81 -7 -117.5 -31t-70.5 -90l-299 -594
v-391q0 -89 29 -113.5t143 -28.5v-65q-189 14 -291 14q-101 0 -287 -14v65q114 4 143 28.5t29 113.5v391zM526 1468l209 275h359l-459 -275h-109z" />
    <glyph glyph-name="Thorn" unicode="&#xde;" horiz-adv-x="1171" 
d="M465 360v-159q0 -48 4.5 -72t24.5 -40.5t50.5 -21.5t92.5 -8v-65q-186 14 -289 14t-289 -14v65q62 3 92.5 8t50.5 21.5t24.5 40.5t4.5 72v964q0 88 -30 113t-142 29v65q183 -14 289 -14t289 14v-65q-113 -5 -142.5 -29t-29.5 -113v-35h172q115 0 186.5 -15.5t128.5 -53.5
q75 -50 119.5 -134t44.5 -179q0 -94 -42.5 -177.5t-115.5 -134.5q-113 -76 -294 -76h-199zM465 432h117q152 0 226.5 77.5t74.5 235.5q0 160 -74 240q-65 74 -217 74h-127v-627z" />
    <glyph glyph-name="germandbls" unicode="&#xdf;" horiz-adv-x="1087" 
d="M483 707v75q129 9 183.5 74.5t54.5 210.5q0 248 -158 248q-79 0 -116 -52t-37 -161v-1106q-111 6 -164 6q-77 0 -205 -8v51q98 4 122.5 24t24.5 95v805q0 171 68 266q47 66 130 104.5t177 38.5q157 0 259 -93t102 -236q0 -101 -52.5 -169.5t-169.5 -121.5
q125 -37 187 -92q61 -54 95 -135t34 -175q0 -160 -95.5 -267t-236.5 -107q-84 0 -168 51v63q58 -26 98 -26q89 0 136 71t47 209q0 213 -123 301q-37 27 -79.5 39.5t-113.5 16.5z" />
    <glyph glyph-name="agrave" unicode="&#xe0;" horiz-adv-x="1003" 
d="M958 59v-57q-85 -18 -135 -18q-88 0 -132 41.5t-54 136.5q-51 -97 -117 -139.5t-164 -42.5q-129 0 -209.5 73.5t-80.5 190.5q0 141 138 232.5t404 125.5v131q0 103 -36.5 148t-120.5 45q-64 0 -107 -29t-43 -72q0 -12 4 -43q2 -10 2 -30q0 -49 -25.5 -75t-72.5 -26
q-84 0 -84 86q0 103 104 176.5t250 73.5q100 0 180 -35t121 -98q27 -41 38 -101.5t11 -168.5v-377q0 -92 15.5 -125t58.5 -33q21 0 55 10zM608 356v191q-173 -34 -246 -97t-73 -180q0 -88 40.5 -138t110.5 -50q56 0 96.5 31t57.5 88q14 49 14 155zM627 1126h-97l-385 293
h330z" />
    <glyph glyph-name="aacute" unicode="&#xe1;" horiz-adv-x="1003" 
d="M958 59v-57q-85 -18 -135 -18q-88 0 -132 41.5t-54 136.5q-51 -97 -117 -139.5t-164 -42.5q-129 0 -209.5 73.5t-80.5 190.5q0 141 138 232.5t404 125.5v131q0 103 -36.5 148t-120.5 45q-64 0 -107 -29t-43 -72q0 -12 4 -43q2 -10 2 -30q0 -49 -25.5 -75t-72.5 -26
q-84 0 -84 86q0 103 104 176.5t250 73.5q100 0 180 -35t121 -98q27 -41 38 -101.5t11 -168.5v-377q0 -92 15.5 -125t58.5 -33q21 0 55 10zM608 356v191q-173 -34 -246 -97t-73 -180q0 -88 40.5 -138t110.5 -50q56 0 96.5 31t57.5 88q14 49 14 155zM365 1126l151 293h330
l-385 -293h-96z" />
    <glyph glyph-name="acircumflex" unicode="&#xe2;" horiz-adv-x="1003" 
d="M958 59v-57q-85 -18 -135 -18q-88 0 -132 41.5t-54 136.5q-51 -97 -117 -139.5t-164 -42.5q-129 0 -209.5 73.5t-80.5 190.5q0 141 138 232.5t404 125.5v131q0 103 -36.5 148t-120.5 45q-64 0 -107 -29t-43 -72q0 -12 4 -43q2 -10 2 -30q0 -49 -25.5 -75t-72.5 -26
q-84 0 -84 86q0 103 104 176.5t250 73.5q100 0 180 -35t121 -98q27 -41 38 -101.5t11 -168.5v-377q0 -92 15.5 -125t58.5 -33q21 0 55 10zM608 356v191q-173 -34 -246 -97t-73 -180q0 -88 40.5 -138t110.5 -50q56 0 96.5 31t57.5 88q14 49 14 155zM156 1112l333 344
l336 -344h-98l-238 158l-235 -158h-98z" />
    <glyph glyph-name="atilde" unicode="&#xe3;" horiz-adv-x="1003" 
d="M958 59v-57q-85 -18 -135 -18q-88 0 -132 41.5t-54 136.5q-51 -97 -117 -139.5t-164 -42.5q-129 0 -209.5 73.5t-80.5 190.5q0 141 138 232.5t404 125.5v131q0 103 -36.5 148t-120.5 45q-64 0 -107 -29t-43 -72q0 -12 4 -43q2 -10 2 -30q0 -49 -25.5 -75t-72.5 -26
q-84 0 -84 86q0 103 104 176.5t250 73.5q100 0 180 -35t121 -98q27 -41 38 -101.5t11 -168.5v-377q0 -92 15.5 -125t58.5 -33q21 0 55 10zM608 356v191q-173 -34 -246 -97t-73 -180q0 -88 40.5 -138t110.5 -50q56 0 96.5 31t57.5 88q14 49 14 155zM223 1165l-61 19
q29 79 40.5 103t30.5 46q58 64 136 64q64 0 149 -49q62 -36 85 -46t50 -10q43 0 67.5 20t59.5 83l62 -15q-58 -225 -215 -225q-39 0 -70 12t-111 58q-63 35 -100 35q-40 0 -67.5 -21.5t-55.5 -73.5z" />
    <glyph glyph-name="adieresis" unicode="&#xe4;" horiz-adv-x="1003" 
d="M958 59v-57q-85 -18 -135 -18q-88 0 -132 41.5t-54 136.5q-51 -97 -117 -139.5t-164 -42.5q-129 0 -209.5 73.5t-80.5 190.5q0 141 138 232.5t404 125.5v131q0 103 -36.5 148t-120.5 45q-64 0 -107 -29t-43 -72q0 -12 4 -43q2 -10 2 -30q0 -49 -25.5 -75t-72.5 -26
q-84 0 -84 86q0 103 104 176.5t250 73.5q100 0 180 -35t121 -98q27 -41 38 -101.5t11 -168.5v-377q0 -92 15.5 -125t58.5 -33q21 0 55 10zM608 356v191q-173 -34 -246 -97t-73 -180q0 -88 40.5 -138t110.5 -50q56 0 96.5 31t57.5 88q14 49 14 155zM287 1415q51 0 87 -38.5
t36 -92.5q0 -56 -36.5 -94.5t-88.5 -38.5q-51 0 -88 38.5t-37 92.5q0 56 36.5 94.5t90.5 38.5zM690 1415q51 0 87 -38.5t36 -92.5q0 -56 -36.5 -94.5t-88.5 -38.5t-88.5 38.5t-36.5 92.5q0 56 36.5 94.5t90.5 38.5z" />
    <glyph glyph-name="aring" unicode="&#xe5;" horiz-adv-x="1003" 
d="M958 59v-57q-85 -18 -135 -18q-88 0 -132 41.5t-54 136.5q-51 -97 -117 -139.5t-164 -42.5q-129 0 -209.5 73.5t-80.5 190.5q0 141 138 232.5t404 125.5v131q0 103 -36.5 148t-120.5 45q-64 0 -107 -29t-43 -72q0 -12 4 -43q2 -10 2 -30q0 -49 -25.5 -75t-72.5 -26
q-84 0 -84 86q0 103 104 176.5t250 73.5q100 0 180 -35t121 -98q27 -41 38 -101.5t11 -168.5v-377q0 -92 15.5 -125t58.5 -33q21 0 55 10zM608 356v191q-173 -34 -246 -97t-73 -180q0 -88 40.5 -138t110.5 -50q56 0 96.5 31t57.5 88q14 49 14 155zM494 1466q72 0 124 -53
t52 -125q0 -75 -52 -127.5t-126 -52.5t-126.5 52.5t-52.5 125.5q0 75 53 127.5t128 52.5zM494 1384q-41 0 -70 -28.5t-29 -69.5q0 -40 28.5 -68t68.5 -28t68 28.5t28 69.5q0 40 -28 68t-66 28z" />
    <glyph glyph-name="ae" unicode="&#xe6;" horiz-adv-x="1515" 
d="M1362 309h82q-25 -157 -127.5 -243t-265.5 -86q-270 0 -389 233q-69 -233 -302 -233q-131 0 -212.5 72.5t-81.5 187.5q0 297 542 335v158q0 102 -37 147.5t-120 45.5q-61 0 -106.5 -29.5t-45.5 -67.5q0 -16 2 -26q6 -34 6 -58q0 -44 -26 -69t-70 -25q-86 0 -86 84
q0 104 103 178t249 74q184 0 279 -106q125 106 286 106q100 0 188 -45.5t132 -120.5q40 -68 59 -142.5t23 -184.5h-610q2 -120 8.5 -180t25.5 -107q61 -152 228 -152q106 0 174.5 65.5t91.5 188.5zM608 356v142q-174 -13 -246.5 -66.5t-72.5 -167.5q0 -83 41 -132.5
t110 -49.5q88 0 135 76q33 54 33 198zM836 578h381q-9 354 -183 354q-91 0 -139.5 -86.5t-58.5 -267.5z" />
    <glyph glyph-name="ccedilla" unicode="&#xe7;" horiz-adv-x="929" 
d="M541 -25l-49 -88q91 -5 132.5 -37.5t41.5 -101.5q0 -71 -51 -113.5t-136 -42.5q-69 0 -164 35v68q77 -21 111 -21q40 0 65 22.5t25 59.5q0 43 -34.5 63.5t-110.5 20.5l78 137q-172 26 -269.5 158.5t-97.5 341.5q0 229 119.5 372.5t310.5 143.5q72 0 124 -20.5t103 -69.5
l60 107h39v-365h-56q-15 100 -45 158q-29 60 -80.5 94.5t-111.5 34.5q-113 0 -172.5 -116t-59.5 -337q0 -428 228 -428q92 0 152 68t77 194h84q-17 -151 -97.5 -238t-215.5 -100z" />
    <glyph glyph-name="egrave" unicode="&#xe8;" horiz-adv-x="966" 
d="M813 309h80q-25 -160 -124 -247t-257 -87q-203 0 -321.5 136.5t-118.5 371.5q0 230 116 370t308 140q127 0 221 -65.5t137 -182.5q33 -95 39 -251h-594q1 -239 60 -341t196 -102q104 0 171 67.5t87 190.5zM301 567h369q-8 197 -49.5 284t-128.5 87q-176 0 -191 -371z
M629 1126h-97l-385 293h330z" />
    <glyph glyph-name="eacute" unicode="&#xe9;" horiz-adv-x="966" 
d="M813 309h80q-25 -160 -124 -247t-257 -87q-203 0 -321.5 136.5t-118.5 371.5q0 230 116 370t308 140q127 0 221 -65.5t137 -182.5q33 -95 39 -251h-594q1 -239 60 -341t196 -102q104 0 171 67.5t87 190.5zM301 567h369q-8 197 -49.5 284t-128.5 87q-176 0 -191 -371z
M385 1126l152 293h329l-385 -293h-96z" />
    <glyph glyph-name="ecircumflex" unicode="&#xea;" horiz-adv-x="966" 
d="M813 309h80q-25 -160 -124 -247t-257 -87q-203 0 -321.5 136.5t-118.5 371.5q0 230 116 370t308 140q127 0 221 -65.5t137 -182.5q33 -95 39 -251h-594q1 -239 60 -341t196 -102q104 0 171 67.5t87 190.5zM301 567h369q-8 197 -49.5 284t-128.5 87q-176 0 -191 -371z
M162 1112l334 344l335 -344h-98l-237 158l-236 -158h-98z" />
    <glyph glyph-name="edieresis" unicode="&#xeb;" horiz-adv-x="966" 
d="M813 309h80q-25 -160 -124 -247t-257 -87q-203 0 -321.5 136.5t-118.5 371.5q0 230 116 370t308 140q127 0 221 -65.5t137 -182.5q33 -95 39 -251h-594q1 -239 60 -341t196 -102q104 0 171 67.5t87 190.5zM301 567h369q-8 197 -49.5 284t-128.5 87q-176 0 -191 -371z
M293 1415q51 0 87 -38.5t36 -92.5q0 -56 -36.5 -94.5t-88.5 -38.5q-51 0 -88 38.5t-37 92.5q0 56 36.5 94.5t90.5 38.5zM696 1415q51 0 87 -38.5t36 -92.5q0 -56 -36.5 -94.5t-88.5 -38.5t-88.5 38.5t-36.5 92.5q0 56 36.5 94.5t90.5 38.5z" />
    <glyph glyph-name="igrave" unicode="&#xec;" horiz-adv-x="620" 
d="M424 1004v-840q0 -75 24.5 -95t122.5 -24v-51q-145 12 -258 12t-258 -12v51q98 5 123 24.5t25 94.5v594q0 92 -23 113.5t-123 21.5v47q188 13 367 64zM424 1126h-92l-363 291h316z" />
    <glyph glyph-name="iacute" unicode="&#xed;" horiz-adv-x="620" 
d="M424 1004v-840q0 -75 24.5 -95t122.5 -24v-51q-145 12 -258 12t-258 -12v51q98 5 123 24.5t25 94.5v594q0 92 -23 113.5t-123 21.5v47q188 13 367 64zM174 1126l139 291h316l-365 -291h-90z" />
    <glyph glyph-name="icircumflex" unicode="&#xee;" horiz-adv-x="620" 
d="M422 1004v-840q0 -75 24.5 -95t122.5 -24v-51q-145 12 -258 12t-258 -12v51q98 5 123 24.5t25 94.5v594q0 92 -23 113.5t-123 21.5v47q184 13 367 64zM2 1112l293 344l295 -344h-92l-203 156l-201 -156h-92z" />
    <glyph glyph-name="idieresis" unicode="&#xef;" horiz-adv-x="620" 
d="M137 1415q51 0 87 -36.5t36 -88.5t-36 -88.5t-89 -36.5t-89 36.5t-36 88.5q0 53 36.5 89t90.5 36zM461 1415q51 0 87 -37t36 -88q0 -52 -36 -88.5t-89 -36.5t-89 36.5t-36 88.5q0 53 36.5 89t90.5 36zM420 1004v-840q0 -75 24.5 -95t122.5 -24v-51q-148 12 -258 12
t-258 -12v51q98 5 123 24.5t25 94.5v592q0 34 -1.5 53t-7.5 36t-14 25t-26.5 13.5t-39.5 7t-57 2.5v47q168 11 367 64z" />
    <glyph glyph-name="eth" unicode="&#xf0;" horiz-adv-x="1001" 
d="M311 1354l58 37l116 -138l156 99l39 -62l-145 -94l157 -184q134 -158 185 -273.5t51 -257.5q0 -217 -120.5 -359t-303.5 -142q-188 0 -310 142.5t-122 362.5q0 214 122.5 358t305.5 144q24 0 47 -2l-103 154l-143 -95l-41 62l148 96zM494 932q-195 0 -195 -414
q0 -244 51.5 -363.5t157.5 -119.5q98 0 145 98.5t47 304.5q0 494 -206 494z" />
    <glyph glyph-name="ntilde" unicode="&#xf1;" horiz-adv-x="1181" 
d="M53 889v47q200 24 309 59q25 -70 31 -174q57 86 127.5 126t165.5 40q151 0 229 -87.5t78 -256.5v-479q0 -75 25 -94.5t123 -24.5v-51q-127 12 -244 12q-120 0 -238 -12v49q69 3 91 25t22 88v510q0 105 -29 153q-45 66 -135 66q-99 0 -155 -78q-31 -47 -31 -148v-503
q0 -66 21.5 -88t88.5 -25v-49q-118 12 -237 12q-115 0 -242 -12v51q98 5 123 24.5t25 94.5v586q0 38 -0.5 57t-6.5 38t-13 25t-26.5 12t-40 6.5t-61.5 0.5zM311 1165l-61 19q28 76 40 101t32 48q58 64 135 64q64 0 149 -49q62 -36 85 -46t50 -10q43 0 67.5 20t59.5 83
l62 -15q-58 -225 -215 -225q-39 0 -69 12t-111 58q-63 35 -101 35q-40 0 -67.5 -21.5t-55.5 -73.5z" />
    <glyph glyph-name="ograve" unicode="&#xf2;" horiz-adv-x="1001" 
d="M508 993q189 0 305.5 -141.5t116.5 -370.5q0 -215 -123.5 -360.5t-306.5 -145.5q-186 0 -307 142.5t-121 363.5t123.5 366.5t312.5 145.5zM504 938q-100 0 -151.5 -116t-51.5 -341q0 -230 49 -340t152 -110q101 0 150.5 109t49.5 335q0 240 -47.5 351.5t-150.5 111.5z
M633 1126h-96l-385 293h329z" />
    <glyph glyph-name="oacute" unicode="&#xf3;" horiz-adv-x="1001" 
d="M508 993q189 0 305.5 -141.5t116.5 -370.5q0 -215 -123.5 -360.5t-306.5 -145.5q-186 0 -307 142.5t-121 363.5t123.5 366.5t312.5 145.5zM504 938q-100 0 -151.5 -116t-51.5 -341q0 -230 49 -340t152 -110q101 0 150.5 109t49.5 335q0 240 -47.5 351.5t-150.5 111.5z
M397 1126l152 293h330l-385 -293h-97z" />
    <glyph glyph-name="ocircumflex" unicode="&#xf4;" horiz-adv-x="1001" 
d="M508 993q189 0 305.5 -141.5t116.5 -370.5q0 -215 -123.5 -360.5t-306.5 -145.5q-186 0 -307 142.5t-121 363.5t123.5 366.5t312.5 145.5zM504 938q-100 0 -151.5 -116t-51.5 -341q0 -230 49 -340t152 -110q101 0 150.5 109t49.5 335q0 240 -47.5 351.5t-150.5 111.5z
M166 1112l334 344l336 -344h-99l-237 158l-236 -158h-98z" />
    <glyph glyph-name="otilde" unicode="&#xf5;" horiz-adv-x="1001" 
d="M508 993q189 0 305.5 -141.5t116.5 -370.5q0 -215 -123.5 -360.5t-306.5 -145.5q-186 0 -307 142.5t-121 363.5t123.5 366.5t312.5 145.5zM504 938q-100 0 -151.5 -116t-51.5 -341q0 -230 49 -340t152 -110q101 0 150.5 109t49.5 335q0 240 -47.5 351.5t-150.5 111.5z
M229 1165l-61 19q28 76 40 101t32 48q58 64 135 64q64 0 149 -49q62 -36 85 -46t50 -10q43 0 67.5 20t59.5 83l62 -15q-58 -225 -215 -225q-39 0 -69 12t-111 58q-63 35 -101 35q-40 0 -67.5 -21.5t-55.5 -73.5z" />
    <glyph glyph-name="odieresis" unicode="&#xf6;" horiz-adv-x="1001" 
d="M508 993q189 0 305.5 -141.5t116.5 -370.5q0 -215 -123.5 -360.5t-306.5 -145.5q-186 0 -307 142.5t-121 363.5t123.5 366.5t312.5 145.5zM504 938q-100 0 -151.5 -116t-51.5 -341q0 -230 49 -340t152 -110q101 0 150.5 109t49.5 335q0 240 -47.5 351.5t-150.5 111.5z
M301 1415q51 0 87 -38.5t36 -92.5q0 -56 -36.5 -94.5t-88.5 -38.5q-51 0 -88 38.5t-37 92.5q0 56 36.5 94.5t90.5 38.5zM705 1415q51 0 86.5 -38.5t35.5 -92.5q0 -56 -36.5 -94.5t-88.5 -38.5t-88 38.5t-36 92.5q0 56 36.5 94.5t90.5 38.5z" />
    <glyph glyph-name="divide" unicode="&#xf7;" 
d="M100 614v148h893v-148h-893zM549 502q51 0 88 -37.5t37 -89.5q0 -53 -37 -90t-90 -37t-90 37t-37 90q0 54 37.5 90.5t91.5 36.5zM549 1130q51 0 88 -37t37 -89t-37 -89.5t-90 -37.5t-90 37.5t-37 89.5q0 54 37.5 90t91.5 36z" />
    <glyph glyph-name="oslash" unicode="&#xf8;" horiz-adv-x="1001" 
d="M125 -16h-84l133 159q-96 137 -96 334q0 224 123 371t309 147q89 0 146 -24t128 -92l86 104h84l-127 -154q99 -141 99 -335q0 -224 -122 -372.5t-306 -148.5q-83 0 -148 28t-133 93zM690 676l-362 -461q56 -178 180 -178q101 0 149 112.5t48 348.5q0 90 -15 178zM311 297
l365 463q-25 91 -64.5 131.5t-103.5 40.5q-211 0 -211 -453q0 -94 14 -182z" />
    <glyph glyph-name="ugrave" unicode="&#xf9;" horiz-adv-x="1165" 
d="M395 1004v-695q0 -67 7 -103t26 -61q43 -61 131 -61q184 0 184 240v434q0 92 -22.5 113.5t-122.5 21.5v47q183 12 367 64v-820q0 -63 21 -79t106 -19l24 -2v-49q-190 -18 -321 -64q-16 89 -21 187q-51 -92 -119.5 -133t-169.5 -41q-176 0 -260 122q-51 73 -51 216v436
q0 92 -22.5 113.5t-122.5 21.5v47q186 13 366 64zM700 1126h-96l-385 293h330z" />
    <glyph glyph-name="uacute" unicode="&#xfa;" horiz-adv-x="1165" 
d="M395 1004v-695q0 -67 7 -103t26 -61q43 -61 131 -61q184 0 184 240v434q0 92 -22.5 113.5t-122.5 21.5v47q183 12 367 64v-820q0 -63 21 -79t106 -19l24 -2v-49q-190 -18 -321 -64q-16 89 -21 187q-51 -92 -119.5 -133t-169.5 -41q-176 0 -260 122q-51 73 -51 216v436
q0 92 -22.5 113.5t-122.5 21.5v47q186 13 366 64zM453 1126l151 293h330l-385 -293h-96z" />
    <glyph glyph-name="ucircumflex" unicode="&#xfb;" horiz-adv-x="1165" 
d="M395 1004v-695q0 -67 7 -103t26 -61q43 -61 131 -61q184 0 184 240v434q0 92 -22.5 113.5t-122.5 21.5v47q183 12 367 64v-820q0 -63 21 -79t106 -19l24 -2v-49q-190 -18 -321 -64q-16 89 -21 187q-51 -92 -119.5 -133t-169.5 -41q-176 0 -260 122q-51 73 -51 216v436
q0 92 -22.5 113.5t-122.5 21.5v47q186 13 366 64zM233 1112l334 344l336 -344h-98l-238 158l-235 -158h-99z" />
    <glyph glyph-name="udieresis" unicode="&#xfc;" horiz-adv-x="1165" 
d="M395 1004v-695q0 -67 7 -103t26 -61q43 -61 131 -61q184 0 184 240v434q0 92 -22.5 113.5t-122.5 21.5v47q183 12 367 64v-820q0 -63 21 -79t106 -19l24 -2v-49q-190 -18 -321 -64q-16 89 -21 187q-51 -92 -119.5 -133t-169.5 -41q-176 0 -260 122q-51 73 -51 216v436
q0 92 -22.5 113.5t-122.5 21.5v47q186 13 366 64zM371 1415q51 0 87 -38.5t36 -92.5q0 -56 -36.5 -94.5t-88.5 -38.5q-51 0 -88 38.5t-37 92.5q0 56 36.5 94.5t90.5 38.5zM774 1415q51 0 87 -38.5t36 -92.5q0 -56 -36.5 -94.5t-88.5 -38.5t-88.5 38.5t-36.5 92.5
q0 56 36.5 94.5t90.5 38.5z" />
    <glyph glyph-name="yacute" unicode="&#xfd;" horiz-adv-x="1067" 
d="M496 29l-303 772q-29 69 -60.5 93t-101.5 28v51q130 -10 239 -10q110 0 240 10v-51q-64 -5 -85.5 -13.5t-21.5 -29.5q0 -17 17 -60l188 -524l207 512q21 53 21 70q0 25 -24 34t-89 11v51q91 -8 158 -8q69 0 170 8v-51q-63 -6 -98.5 -35t-63.5 -96l-395 -959
q-53 -125 -128.5 -181.5t-189.5 -56.5q-15 0 -45 3v110q23 -2 43 -2q91 0 151.5 40t98.5 126zM461 1126l151 293h330l-385 -293h-96z" />
    <glyph glyph-name="thorn" unicode="&#xfe;" horiz-adv-x="1105" 
d="M401 1399v-525q45 60 98 86.5t124 26.5q177 0 294 -143.5t117 -360.5q0 -221 -112 -362t-287 -141q-77 0 -125.5 24.5t-108.5 93.5v-336q0 -75 24 -94.5t124 -23.5v-52q-160 13 -258 13t-258 -13v52q99 5 123 24t24 94v1389q0 92 -22.5 113.5t-122.5 21.5v47
q194 14 366 66zM602 930q-103 0 -153 -107t-50 -331q0 -233 50.5 -344t156.5 -111q101 0 150 105.5t49 326.5q0 461 -203 461z" />
    <glyph glyph-name="ydieresis" unicode="&#xff;" horiz-adv-x="1067" 
d="M496 29l-303 772q-29 69 -60.5 93t-101.5 28v51q130 -10 239 -10q110 0 240 10v-51q-64 -5 -85.5 -13.5t-21.5 -29.5q0 -17 17 -60l188 -524l207 512q21 53 21 70q0 25 -24 34t-89 11v51q91 -8 158 -8q69 0 170 8v-51q-63 -6 -98.5 -35t-63.5 -96l-395 -959
q-53 -125 -128.5 -181.5t-189.5 -56.5q-15 0 -45 3v110q23 -2 43 -2q91 0 151.5 40t98.5 126zM371 1415q51 0 87 -38.5t36 -92.5q0 -56 -36.5 -94.5t-88.5 -38.5q-51 0 -88 38.5t-37 92.5q0 56 36.5 94.5t90.5 38.5zM774 1415q51 0 87 -38.5t36 -92.5q0 -56 -36.5 -94.5
t-88.5 -38.5t-88.5 38.5t-36.5 92.5q0 56 36.5 94.5t90.5 38.5z" />
    <glyph glyph-name="Zcaron" horiz-adv-x="1148" 
d="M55 0l713 1294h-254q-131 0 -197.5 -56t-117.5 -208h-64l60 336h870l-713 -1294h342q98 0 148.5 22.5t95.5 87.5q49 68 94 195h62l-66 -377h-973zM995 1782l-366 -328l-367 328h100l267 -144l266 144h100z" />
    <glyph glyph-name="zcaron" horiz-adv-x="935" 
d="M59 0l521 905h-166q-73 0 -113 -17.5t-72 -64t-71 -147.5h-56l52 291h712l-522 -906h184q82 0 123.5 22t79.5 85q37 61 68 154h55l-57 -322h-738zM846 1454l-334 -344l-336 344h98l238 -158l236 158h98z" />
    <glyph glyph-name="Lslash" 
d="M231 586l-172 -103v90l172 103v489q0 88 -30 113t-142 29v65q181 -14 289 -14q106 0 289 14v-65q-113 -5 -142.5 -29t-29.5 -113v-387l291 170v-90l-291 -170v-502q0 -69 24 -90.5t101 -21.5h121q89 0 139.5 26t93.5 95q48 71 72 165h59l-59 -360h-957v66q114 6 143 29.5
t29 111.5v379z" />
    <glyph glyph-name="dotlessi" horiz-adv-x="620" 
d="M424 1004v-840q0 -75 24.5 -95t122.5 -24v-51q-148 12 -258 12t-258 -12v51q98 5 123 24.5t25 94.5v592q0 34 -1.5 53t-7.5 36t-14 25t-26.5 13.5t-39.5 7t-57 2.5v47q168 11 367 64z" />
    <glyph glyph-name="fi" horiz-adv-x="1257" 
d="M416 967h233v-78h-233v-725q0 -75 24.5 -95t122.5 -24v-51q-145 12 -258 12t-258 -12v51q98 5 123 24.5t25 94.5v725h-146v72q57 1 84 4.5t46.5 18.5t25 38.5t8.5 71.5q7 93 20.5 136t45.5 81q82 92 227 92q103 0 168 -48t65 -124q0 -43 -22.5 -65.5t-63.5 -22.5
q-40 0 -63 17t-23 48l2 31q6 29 6 47q0 26 -16 44t-41 18q-52 0 -77 -51t-25 -158v-172zM1061 1004v-840q0 -75 24.5 -95t122.5 -24v-51q-145 12 -258 12t-258 -12v51q98 5 123 24.5t25 94.5v594q0 92 -23 113.5t-123 21.5v47q184 13 367 64zM948 1397q55 0 93 -40.5
t38 -99.5q0 -61 -37 -101t-94 -40q-54 0 -91.5 41t-37.5 100t37 99.5t92 40.5z" />
    <glyph glyph-name="fl" horiz-adv-x="1239" 
d="M49 889v72q57 1 84 4.5t46.5 18.5t25 38.5t8.5 71.5q7 93 20.5 136t45.5 81q82 92 227 92q124 0 194 -70q182 14 353 66v-1235q0 -75 24.5 -95t122.5 -24v-51q-145 12 -258 12t-258 -12v51q98 4 122.5 24t24.5 95v983q0 91 -16 113t-86 26q10 -29 10 -55
q0 -43 -22.5 -65.5t-63.5 -22.5q-40 0 -63 17t-23 48q0 9 4 37t4 37q0 28 -15 44.5t-40 16.5q-54 0 -79 -49t-25 -155v-172h233v-78h-233v-725q0 -75 24.5 -95t122.5 -24v-51q-145 12 -258 12t-258 -12v51q98 5 123 24.5t25 94.5v725h-146z" />
    <glyph glyph-name="lslash" horiz-adv-x="624" 
d="M424 1399v-602l145 88v-99l-145 -86v-536q0 -75 24.5 -95t122.5 -24v-51q-148 12 -258 12t-258 -12v51q98 5 123 24.5t25 94.5v446l-146 -86v97l146 86v444q0 92 -23 113.5t-123 21.5v47q192 13 367 66z" />
    <glyph glyph-name="periodcentered" horiz-adv-x="512" 
d="M258 645q60 0 101.5 -42t41.5 -101q0 -60 -41.5 -103t-101.5 -43t-102.5 42.5t-42.5 101.5q0 62 41.5 103.5t103.5 41.5z" />
    <glyph glyph-name="minus" 
d="M100 614v152h893v-152h-893z" />
    <glyph glyph-name="fraction" horiz-adv-x="116" 
d="M-379 0l778 1333h99l-779 -1333h-98z" />
    <glyph glyph-name="dotaccent" horiz-adv-x="1024" 
d="M514 1415q51 0 87 -39t36 -94q0 -54 -36.5 -92.5t-88.5 -38.5q-51 0 -88 38.5t-37 92.5q0 56 36.5 94.5t90.5 38.5z" />
    <glyph glyph-name="ring" horiz-adv-x="1024" 
d="M514 1466q72 0 124 -53t52 -125q0 -75 -52 -127.5t-126 -52.5t-126 52t-52 126q0 75 52.5 127.5t127.5 52.5zM514 1384q-41 0 -69.5 -28.5t-28.5 -69.5q0 -40 28 -68t68 -28t68 28.5t28 69.5q0 40 -28 68t-66 28z" />
    <glyph glyph-name="caron" horiz-adv-x="1024" 
d="M848 1454l-334 -344l-336 344h98l238 -158l236 158h98z" />
    <glyph glyph-name="breve" horiz-adv-x="1024" 
d="M725 1421h76q-19 -145 -94 -223t-195 -78t-195 78t-94 223h76q45 -84 95.5 -120.5t117.5 -36.5q66 0 116.5 37t96.5 120z" />
    <glyph glyph-name="hungarumlaut" horiz-adv-x="1024" 
d="M315 1126l174 291h222l-301 -291h-95zM618 1126l183 291h221l-307 -291h-97z" />
    <glyph glyph-name="ogonek" horiz-adv-x="1024" 
d="M606 25l103 -15q-105 -41 -152 -81t-47 -87q0 -39 27 -61.5t73 -22.5q32 0 101 19v-68q-88 -33 -164 -33q-86 0 -137.5 43t-51.5 115q0 64 59.5 110t188.5 81z" />
    <glyph glyph-name="lozenge" horiz-adv-x="1366" 
d="M684 1419l530 -735l-530 -737l-532 737zM684 1237l-403 -553l403 -555l403 555z" />
    <glyph glyph-name="increment" horiz-adv-x="1366" 
d="M731 1397l629 -1397h-1354l627 1397h98zM627 1188l-408 -907q-29 -68 -29 -97q0 -35 21.5 -49t75.5 -14h807z" />
    <glyph glyph-name="notequal" horiz-adv-x="1024" 
d="M555 920l119 254l92 -41l-100 -213h315v-99h-360l-91 -194h453v-99h-500l-125 -270l-92 43l107 227h-332v99h379l90 194h-471v99h516z" />
    <glyph glyph-name="radical" horiz-adv-x="1366" 
d="M1331 1686v-62h-239l-379 -1624h-191l-176 731h-311v62h467l162 -691l370 1584h297z" />
    <glyph glyph-name="integral" horiz-adv-x="1026" 
d="M612 999v-976q0 -173 -13.5 -253.5t-53.5 -148.5q-96 -156 -279 -156q-118 0 -197 63t-79 157q0 54 35 89.5t86 35.5q47 0 80.5 -32t33.5 -75q0 -28 -14 -53q-16 -26 -16 -47q0 -26 18.5 -43t46.5 -17q69 0 110.5 88.5t41.5 233.5v1020q0 179 13 258.5t54 148.5
q93 156 279 156q118 0 196 -62.5t78 -156.5q0 -53 -34 -89t-85 -36q-47 0 -80.5 31.5t-33.5 74.5q0 32 14 54q16 23 16 45q0 28 -18 44.5t-49 16.5q-71 0 -110.5 -97.5t-39.5 -273.5z" />
    <glyph glyph-name="approxequal" horiz-adv-x="1024" 
d="M934 991l37 -20q-60 -94 -140 -148.5t-159 -54.5q-34 0 -60 6t-137 41q-128 39 -192 39q-52 0 -86 -18.5t-88 -75.5l-19 -19l-37 21q141 205 303 205q66 0 195 -45q118 -39 178 -39q114 0 205 108zM934 670l37 -21q-60 -95 -139.5 -149t-159.5 -54q-35 0 -62 6t-135 40
q-120 38 -192 38q-52 0 -86 -18t-88 -74l-19 -20l-37 20q142 205 303 205q65 0 195 -43q113 -39 178 -39q113 0 205 109z" />
    <glyph glyph-name="lessequal" horiz-adv-x="1024" 
d="M938 1268v-86l-614 -400l614 -409v-234l-852 572v14zM86 80h852v-80h-852v80z" />
    <glyph glyph-name="greaterequal" horiz-adv-x="1024" 
d="M86 80h852v-80h-852v80zM86 139v88l614 398l-614 411v232l852 -576v-14z" />
    <glyph glyph-name="infinity" horiz-adv-x="1366" 
d="M635 573q-85 -132 -151.5 -182.5t-157.5 -50.5q-131 0 -220.5 96.5t-89.5 237.5q0 154 98 261t238 107q98 0 183 -60.5t165 -186.5q15 20 23 34q53 83 78.5 114t60.5 54q74 47 162 47q137 0 231.5 -101.5t94.5 -250.5q0 -155 -103 -262.5t-254 -107.5q-100 0 -194 65
t-164 186zM731 748q0 -12 61 -91t89 -102q105 -88 209 -88q87 0 145.5 63.5t58.5 157.5q0 101 -73.5 160t-200.5 59q-101 0 -167.5 -36.5t-121.5 -122.5zM596 627q0 6 -84 121q-43 57 -67 77.5t-72 44.5q-58 25 -113 25q-82 0 -136 -61t-54 -152q0 -95 69.5 -151t188.5 -56
q92 0 151.5 33.5t116.5 118.5z" />
    <glyph glyph-name="product" horiz-adv-x="1366" 
d="M10 1366h1344v-39h-47q-88 0 -112 -29t-24 -135v-1439q0 -105 23.5 -134.5t108.5 -29.5h49v-37h-561v37h43q89 0 113 28.5t24 135.5v1439q0 107 -24 135.5t-113 28.5h-299q-89 0 -113.5 -29t-24.5 -135v-1439q0 -106 23.5 -135t109.5 -29h50v-37h-564v37h43
q89 0 113.5 29t24.5 135v1439q0 106 -24.5 135t-113.5 29h-49v39z" />
    <glyph glyph-name="summation" horiz-adv-x="1366" 
d="M109 1366h1073v-336h-39q-20 158 -93.5 218.5t-246.5 60.5h-457l416 -777l-494 -897h541q123 0 193 24.5t126 86.5q65 71 99 203h39l-68 -426h-1089l503 917z" />
    <glyph glyph-name="partialdiff" horiz-adv-x="1024" 
d="M295 1374l20 37q194 -77 334 -211q71 -68 123.5 -150.5t101.5 -203.5q89 -212 89 -379q0 -217 -128 -357.5t-325 -140.5q-192 0 -320.5 136.5t-128.5 340.5q0 202 127.5 340t315.5 138q81 0 137.5 -25.5t112.5 -87.5q11 -11 20 -23q-69 210 -179.5 345t-299.5 241z
M518 872q-96 0 -162 -69q-48 -51 -81 -153.5t-33 -200.5q0 -109 34 -213.5t86 -153.5q68 -62 146 -62q118 0 196 125.5t78 313.5q0 185 -73 299t-191 114z" />
    <glyph glyph-name="pi" horiz-adv-x="1024" 
d="M1137 961v-121h-297q-38 -97 -51 -146t-13 -98v-326q0 -115 17 -150.5t71 -35.5q15 0 64 12l28 8v-36l-237 -88q-21 -7 -27 -7q-11 0 -28.5 15.5t-32.5 38.5q-22 32 -29.5 63t-7.5 86v318q0 69 14.5 114.5t59.5 116.5l26 45q27 45 45 70h-348l-4 -238
q-1 -101 -20.5 -277.5t-36.5 -248.5q-24 -115 -90 -115q-34 0 -59 26.5t-25 63.5q0 29 7 51.5t36 90.5q46 128 69 271.5t33 375.5q-112 0 -179.5 -36.5t-144.5 -137.5l-26 28l137 189q32 43 75.5 60.5t117.5 17.5h856z" />
    <glyph glyph-name="Ohm" horiz-adv-x="1366" 
d="M1417 260l-78 -260h-575v106q102 53 155.5 95t100.5 108q64 86 98.5 197t34.5 229q0 150 -52 282t-143 214q-52 45 -123 70.5t-147 25.5q-260 0 -389 -231q-88 -163 -88 -355q0 -146 52 -279t145 -226q38 -38 77.5 -65t114.5 -65v-106h-577l-76 260h39
q31 -88 83.5 -117.5t178.5 -31.5l223 -9v13q-107 41 -167.5 76.5t-119.5 91.5q-97 94 -148.5 212t-51.5 246q0 143 71.5 282.5t192.5 231.5q174 134 434 134q354 0 551 -244q145 -180 145 -400q0 -158 -76.5 -300t-211.5 -234q-54 -38 -197 -96v-13l237 11q116 0 165.5 29.5
t80.5 117.5h41z" />
    </font>
</defs>
</svg>
